<?xml version="1.0" standalone="no"?>
<!DOCTYPE svg PUBLIC "-//W3C//DTD SVG 20010904//EN"
 "http://www.w3.org/TR/2001/REC-SVG-20010904/DTD/svg10.dtd">
<svg version="1.0" xmlns="http://www.w3.org/2000/svg"
 width="512.000000pt" height="512.000000pt" viewBox="0 0 512.000000 512.000000"
 preserveAspectRatio="xMidYMid meet">
<metadata>
Created by potrace 1.14, written by Peter Selinger 2001-2017
</metadata>
<g transform="translate(0.000000,512.000000) scale(0.100000,-0.100000)"
fill="#000000" stroke="none">
<path d="M2520 4723 c0 -7 -9 -13 -19 -13 -22 0 -74 -43 -64 -53 3 -4 1 -7 -6
-7 -7 0 -11 -6 -8 -14 3 -7 0 -19 -6 -26 -9 -10 -9 -14 0 -17 8 -3 11 -14 7
-29 -5 -20 -3 -23 12 -17 11 4 15 3 11 -4 -4 -6 -1 -18 7 -26 8 -8 12 -17 9
-21 -4 -3 -2 -6 3 -6 6 0 20 -9 32 -20 12 -12 22 -18 22 -14 0 3 9 -4 20 -17
10 -13 19 -20 20 -15 0 5 9 -1 20 -14 11 -12 17 -27 14 -31 -3 -5 2 -9 10 -9
21 0 20 -9 -1 -33 -10 -11 -12 -17 -5 -13 11 7 11 4 1 -12 -10 -16 -16 -18
-26 -10 -10 8 -12 7 -7 -6 3 -9 2 -16 -2 -17 -5 0 -17 -2 -27 -4 -10 -2 -21 3
-24 11 -3 8 -9 11 -14 8 -5 -3 -9 0 -9 6 0 6 -4 8 -10 5 -9 -6 -14 8 -11 27 1
10 -20 6 -35 -7 -15 -12 -7 -28 9 -18 7 4 5 -2 -3 -13 -8 -10 -11 -16 -6 -12
10 8 36 -14 29 -24 -2 -5 3 -8 11 -8 9 0 16 -6 16 -12 0 -9 4 -8 10 2 9 13 10
13 10 -1 0 -12 8 -14 30 -11 19 3 27 8 23 16 -4 6 1 5 10 -3 15 -12 17 -11 17
3 0 10 4 15 9 12 12 -8 44 30 39 46 -3 7 1 23 7 35 10 19 9 30 -3 58 -9 19
-20 35 -25 35 -4 0 -5 5 -1 12 5 8 2 9 -11 4 -15 -5 -16 -4 -5 9 11 13 10 14
-4 9 -12 -5 -19 0 -23 16 -4 16 -8 18 -14 8 -7 -10 -9 -9 -9 5 0 9 -6 17 -14
17 -7 0 -21 11 -32 24 -10 14 -21 23 -25 20 -4 -2 -9 12 -11 31 -2 20 0 35 7
35 5 0 3 5 -5 10 -10 6 -11 10 -2 10 6 0 11 5 10 12 -2 7 2 12 7 13 6 0 16 4
24 9 10 6 12 5 7 -2 -4 -7 -2 -12 3 -12 6 0 11 7 11 15 0 8 4 15 9 15 6 0 8
-9 6 -21 -4 -17 -2 -19 10 -9 11 9 15 9 15 1 0 -6 7 -11 16 -11 8 0 13 -3 11
-7 -3 -5 1 -14 9 -21 11 -10 14 -10 14 0 0 9 3 9 10 -2 7 -11 10 -7 10 18 0
23 -4 31 -12 26 -7 -5 -9 -2 -5 8 4 12 0 15 -16 11 -18 -4 -19 -3 -7 6 12 9
11 11 -8 11 -15 0 -21 4 -16 12 5 7 3 8 -6 3 -7 -4 -16 -2 -21 6 -7 12 -9 11
-9 -1 0 -13 -1 -13 -10 0 -6 10 -10 11 -10 3z"/>
<path d="M3055 4660 c3 -6 -1 -7 -9 -4 -12 5 -16 -1 -16 -26 0 -17 -4 -29 -9
-26 -11 7 -9 -13 3 -33 6 -10 5 -12 -2 -7 -8 4 -12 0 -12 -11 0 -11 -6 -25
-12 -32 -11 -11 -10 -12 2 -6 13 8 13 7 1 -8 -10 -12 -10 -17 -2 -17 8 0 7 -5
-3 -15 -8 -9 -13 -22 -10 -30 4 -8 2 -15 -3 -15 -12 0 -13 -32 -1 -47 6 -7 3
-16 -9 -25 -26 -19 -25 -98 2 -128 11 -12 19 -24 17 -27 -2 -3 0 -8 4 -11 4
-4 4 -1 0 6 -4 6 -2 12 3 12 6 0 11 -7 11 -16 0 -8 5 -12 10 -9 6 3 10 3 10
-2 0 -4 20 -8 44 -8 33 0 42 3 38 14 -3 9 -1 12 6 7 22 -13 57 31 61 77 1 5 5
6 9 3 5 -3 9 1 9 8 0 9 -7 12 -16 9 -11 -4 -10 -1 3 9 10 8 16 20 12 26 -4 7
-2 12 4 12 8 0 8 5 1 17 -7 13 -5 23 7 37 9 10 18 30 18 45 3 48 4 52 12 47 4
-2 8 20 7 49 0 29 4 53 9 52 5 -1 11 4 14 12 3 9 0 11 -8 6 -10 -6 -12 -3 -6
10 5 15 4 16 -8 6 -11 -9 -15 -9 -19 1 -3 7 -6 0 -6 -15 -1 -15 -7 -30 -14
-33 -7 -2 -13 -14 -14 -24 -1 -11 2 -18 6 -16 4 3 8 -1 8 -9 0 -8 -4 -12 -9
-9 -4 3 -8 0 -8 -6 0 -6 -4 -9 -8 -6 -4 2 -8 -4 -8 -14 0 -15 3 -17 16 -7 9 7
7 3 -3 -10 -11 -12 -16 -26 -13 -32 4 -5 2 -12 -3 -15 -5 -3 -7 -16 -3 -28 3
-14 1 -19 -6 -14 -6 4 -11 -1 -11 -11 -1 -53 -7 -78 -18 -76 -9 2 -10 -4 -3
-22 6 -17 6 -25 -1 -25 -6 0 -7 -4 -4 -10 3 -5 1 -10 -4 -10 -6 0 -11 5 -11
10 0 6 -6 5 -14 -2 -8 -7 -12 -17 -9 -22 3 -4 -6 -1 -20 8 -20 13 -26 14 -30
4 -4 -8 -6 -7 -6 5 -1 15 -12 22 -34 18 -4 -1 -4 7 1 16 5 10 10 33 10 50 1
39 9 56 24 47 7 -4 8 -2 4 5 -4 6 -13 8 -19 4 -7 -4 -6 0 2 10 7 9 10 17 6 17
-4 0 -2 6 4 14 9 11 9 15 -1 19 -10 4 -10 6 1 6 11 1 11 4 1 16 -11 13 -10 14
4 9 12 -5 15 -2 9 12 -4 11 -3 15 5 10 7 -4 8 2 2 24 -6 20 -5 28 1 24 6 -3
10 2 8 12 -1 11 1 27 6 37 4 9 5 26 2 37 -3 13 -1 18 6 13 7 -4 8 0 4 11 -4
10 -7 20 -7 22 0 2 -5 4 -11 4 -5 0 -7 -4 -4 -10z"/>
<path d="M1895 4621 c4 -11 3 -12 -10 -1 -13 11 -15 9 -15 -11 0 -13 -1 -72
-3 -131 -1 -58 1 -104 5 -102 4 2 9 0 13 -6 3 -5 0 -10 -7 -10 -8 0 -9 -3 -3
-8 12 -8 13 -27 3 -38 -4 -4 -2 -14 5 -22 9 -12 9 -16 0 -19 -7 -3 -13 -9 -13
-14 0 -6 4 -8 9 -4 6 3 9 -13 7 -39 -3 -50 1 -59 26 -69 11 -4 17 -2 15 6 -1
7 3 11 10 10 7 -2 10 4 7 12 -4 8 -11 12 -17 8 -6 -4 -7 -1 -1 8 9 15 11 20
13 47 0 9 10 23 21 29 17 11 19 10 14 -5 -5 -16 -5 -16 8 0 10 11 22 15 38 11
18 -5 21 -3 15 7 -5 8 6 4 24 -9 24 -17 29 -26 21 -36 -16 -19 30 -48 48 -29
17 19 15 29 -3 14 -9 -8 -15 -9 -15 -2 0 6 5 14 11 17 7 5 6 12 -4 23 -8 10
-13 25 -12 35 3 14 0 16 -10 7 -11 -9 -13 -6 -11 14 2 18 -2 26 -13 26 -14 0
-14 2 -1 10 12 8 12 10 -3 16 -15 5 -15 9 -5 22 10 12 10 14 1 8 -8 -4 -13 -2
-13 4 0 6 -4 8 -10 5 -6 -3 -7 1 -4 9 4 10 1 16 -7 16 -11 0 -11 3 1 10 11 7
11 10 2 10 -7 0 -10 5 -7 10 3 6 1 10 -4 10 -6 0 -11 9 -11 21 0 11 -4 17 -10
14 -6 -4 -10 5 -10 20 0 15 -4 24 -10 20 -5 -3 -10 3 -10 14 0 10 -6 22 -12
24 -10 4 -10 6 0 6 10 1 10 4 0 15 -7 8 -17 11 -22 8 -5 -3 -7 1 -4 9 4 10 -2
14 -18 14 -17 0 -23 -4 -19 -14z m35 -132 c0 -5 -4 -9 -8 -9 -5 0 -9 7 -9 15
0 8 4 12 9 9 4 -3 8 -9 8 -15z m31 -6 c12 -14 12 -16 -1 -9 -8 4 -6 0 5 -9 11
-8 20 -21 20 -28 0 -7 6 -23 14 -36 18 -32 20 -79 4 -86 -9 -3 -11 0 -7 8 4 6
-6 1 -22 -13 -15 -14 -23 -18 -16 -8 9 11 10 18 2 23 -5 3 -10 0 -11 -7 0 -10
-2 -10 -6 0 -2 6 -10 9 -16 5 -7 -4 -7 -1 1 9 10 13 10 18 1 24 -8 5 -9 3 -4
-6 5 -8 4 -11 -1 -7 -11 6 -11 87 0 105 4 7 2 12 -6 12 -7 1 -3 6 10 13 12 7
19 16 16 20 -4 4 -5 7 -2 7 3 0 12 -8 19 -17z m-71 -84 c0 -5 -4 -9 -8 -9 -5
0 -9 7 -9 15 0 8 4 12 9 9 4 -3 8 -9 8 -15z"/>
<path d="M3634 4475 c-4 -8 -11 -12 -17 -8 -6 4 -8 0 -4 -10 3 -9 0 -18 -9
-21 -8 -3 -14 -15 -14 -26 0 -11 -5 -20 -11 -20 -5 0 -7 -4 -4 -10 3 -5 1 -10
-6 -10 -8 0 -8 -4 1 -15 11 -13 10 -14 -5 -8 -14 5 -17 3 -12 -10 4 -10 2 -17
-4 -17 -6 0 -8 -7 -5 -16 3 -8 2 -13 -2 -11 -4 3 -13 -1 -20 -9 -10 -11 -10
-14 0 -14 8 0 9 -3 3 -8 -5 -4 -17 -16 -25 -26 -13 -18 -13 -19 0 -12 8 4 7 1
-4 -8 -10 -8 -15 -19 -12 -24 3 -6 -1 -13 -10 -16 -8 -3 -14 -11 -13 -18 3
-27 -1 -39 -13 -32 -7 4 -8 3 -4 -5 4 -6 2 -19 -6 -28 -9 -12 -9 -15 0 -9 6 4
12 3 12 -3 0 -5 -6 -11 -12 -13 -7 -3 -2 -7 11 -11 13 -3 20 -3 17 0 -3 3 2
12 12 20 9 8 11 11 3 8 -9 -5 -8 1 4 19 9 14 22 23 27 20 6 -4 5 2 -1 14 -12
22 0 39 18 27 6 -3 8 3 6 14 -2 11 6 27 18 38 17 14 19 14 9 1 -11 -14 -11
-16 7 -11 13 3 21 1 21 -6 0 -7 4 -10 9 -6 5 3 12 1 16 -5 4 -6 10 -8 14 -6 4
3 7 -9 6 -25 0 -16 -4 -29 -9 -29 -5 0 -2 -8 5 -17 10 -11 10 -14 2 -9 -8 4
-13 2 -13 -4 0 -6 -4 -9 -8 -6 -4 2 -9 -4 -9 -15 -1 -12 3 -17 10 -13 7 3 -1
-5 -16 -19 -26 -24 -27 -26 -10 -37 16 -10 16 -11 1 -6 -10 3 -18 2 -18 -3 0
-5 9 -11 20 -14 11 -3 20 -1 20 4 0 5 8 9 18 9 14 0 15 2 2 10 -10 6 -11 10
-2 10 6 0 12 5 12 11 0 7 8 18 18 25 16 12 16 13 0 14 -9 0 -19 4 -22 9 -4 5
3 7 14 4 16 -4 20 0 20 19 0 13 5 29 12 36 9 9 9 12 -2 12 -9 0 -8 6 6 22 10
12 14 19 8 15 -6 -3 -11 0 -11 8 0 8 4 12 9 9 4 -3 8 0 8 6 0 6 5 8 10 5 6 -3
10 1 10 10 0 9 4 14 9 11 10 -7 24 22 16 34 -3 5 4 15 15 23 11 7 18 16 15 19
-3 2 -1 19 5 36 5 18 5 30 0 27 -8 -5 -26 32 -22 47 1 4 -4 5 -12 2 -7 -3 -16
2 -19 10 -4 9 -13 13 -22 10 -10 -4 -14 -2 -10 8 5 11 -1 14 -24 13 -21 -1
-28 2 -24 12 3 7 2 13 -1 13 -4 0 -9 -7 -12 -15z m45 -69 c10 -7 12 -5 7 5 -4
8 -1 6 7 -3 8 -10 20 -18 26 -18 7 0 9 -4 6 -10 -3 -5 0 -10 7 -11 9 0 10 -2
1 -5 -8 -4 -9 -13 -3 -30 9 -23 3 -30 -23 -25 -5 1 -5 -3 -2 -9 4 -6 -1 -18
-11 -26 -18 -13 -18 -14 1 -8 17 4 16 3 -3 -8 -12 -8 -20 -16 -18 -19 3 -3 -5
-5 -19 -5 -13 0 -21 4 -18 10 4 5 -1 7 -10 3 -10 -3 -17 -2 -17 4 0 6 -4 7
-10 4 -5 -3 -10 1 -10 9 0 9 -5 16 -12 16 -8 0 -6 5 3 13 20 16 47 53 33 44
-6 -3 -11 0 -11 8 0 8 5 13 11 12 6 -1 10 6 8 16 -2 10 3 16 10 15 7 -2 12 4
12 13 -1 18 12 19 35 5z"/>
<path d="M1322 4408 c2 -7 -3 -12 -9 -10 -7 1 -13 -2 -13 -8 0 -5 -3 -9 -7 -9
-20 3 -34 -2 -28 -11 3 -6 -4 -14 -17 -19 -13 -6 -18 -10 -11 -10 7 -1 10 -8
6 -18 -4 -11 -3 -14 5 -9 8 5 10 2 6 -8 -3 -9 -2 -16 4 -16 5 0 12 -13 15 -29
4 -16 19 -42 34 -57 15 -15 20 -22 10 -14 -15 11 -17 11 -11 -4 3 -9 10 -16
16 -16 5 0 6 -4 3 -10 -3 -5 -1 -10 6 -10 7 0 9 -3 6 -6 -4 -4 3 -15 15 -25
12 -11 16 -19 8 -19 -8 0 -4 -8 9 -19 16 -14 18 -21 9 -24 -8 -3 -6 -6 5 -6
10 -1 15 -5 12 -11 -3 -5 -1 -10 5 -10 6 0 8 -4 5 -10 -3 -5 -2 -10 4 -10 6 0
7 -7 4 -17 -4 -11 -3 -14 5 -9 7 4 12 1 12 -9 0 -12 5 -15 16 -11 12 4 15 2
10 -9 -3 -8 -1 -15 4 -15 6 0 10 3 11 8 6 45 4 60 -6 56 -8 -3 -11 5 -10 25 1
24 -2 29 -17 26 -12 -3 -16 0 -12 7 4 6 -2 18 -12 26 -16 13 -17 14 -1 9 9 -4
17 -2 17 3 0 6 -7 10 -15 10 -12 0 -13 4 -6 19 6 10 8 21 5 23 -2 3 7 4 21 3
14 -2 23 1 19 6 -3 5 7 9 21 9 15 0 24 -4 20 -10 -3 -5 0 -10 8 -10 8 0 20 -7
27 -15 11 -13 10 -14 -5 -9 -13 5 -16 4 -11 -4 4 -7 13 -12 21 -12 7 0 16 -7
19 -16 3 -9 2 -12 -5 -8 -6 3 -5 -3 3 -15 7 -12 16 -21 20 -21 5 0 9 -10 9
-22 1 -18 2 -19 6 -5 4 15 7 16 21 5 14 -12 15 -9 9 22 -4 18 -12 37 -18 41
-7 4 -8 12 -5 18 4 6 4 11 -1 10 -20 -3 -25 2 -13 16 10 12 9 15 -4 15 -10 0
-15 3 -13 8 3 4 -1 13 -9 20 -8 7 -14 9 -15 5 0 -4 -5 3 -10 17 -8 20 -12 22
-20 10 -9 -13 -10 -13 -8 0 3 23 -12 90 -22 96 -5 3 -9 11 -9 17 0 7 4 6 10
-3 5 -8 10 -10 10 -4 0 6 -7 17 -15 24 -8 6 -14 15 -13 18 2 19 -4 23 -18 12
-8 -8 -14 -9 -13 -4 4 21 -2 35 -11 29 -5 -3 -10 2 -10 12 0 14 -2 15 -9 4 -7
-11 -9 -11 -14 0 -4 9 -6 7 -7 -6 l-1 -20 -9 20 c-5 11 -9 14 -9 7 -1 -10 -6
-10 -21 -2 -16 8 -20 8 -18 -2z m58 -52 c0 -6 5 -4 10 4 8 13 10 13 10 -2 0
-9 5 -20 12 -24 7 -5 8 -3 3 6 -5 8 -4 11 3 6 6 -4 9 -13 5 -21 -3 -10 1 -15
12 -15 9 0 13 -4 10 -10 -3 -5 -2 -10 3 -10 6 0 8 -10 4 -22 -3 -14 -1 -19 6
-14 6 4 4 -6 -5 -23 -10 -16 -21 -27 -25 -25 -3 2 -9 0 -13 -5 -7 -13 -45 -10
-45 4 0 5 -9 16 -20 23 -11 7 -20 22 -20 33 0 12 -10 30 -22 40 -11 11 -16 19
-10 19 7 0 12 7 12 16 0 12 7 15 24 12 16 -3 23 -1 20 7 -3 6 2 12 11 12 8 0
15 -5 15 -11z"/>
<path d="M3205 4380 c-3 -5 1 -10 10 -10 9 0 13 5 10 10 -3 6 -8 10 -10 10 -2
0 -7 -4 -10 -10z"/>
<path d="M2960 4369 c0 -5 5 -7 10 -4 6 3 10 8 10 11 0 2 -4 4 -10 4 -5 0 -10
-5 -10 -11z"/>
<path d="M4140 4169 c0 -6 -4 -7 -10 -4 -9 6 -14 -8 -11 -27 0 -5 -6 -8 -15
-8 -9 0 -14 -6 -11 -12 6 -16 -28 -80 -37 -71 -4 4 -4 -1 0 -11 5 -13 4 -17
-3 -13 -7 5 -9 -1 -5 -15 4 -17 2 -20 -12 -15 -9 4 -15 3 -11 -2 3 -5 -1 -12
-7 -14 -9 -4 -9 -6 1 -6 11 -1 10 -5 -5 -16 -19 -15 -19 -15 1 -9 17 6 17 4
-3 -11 -13 -9 -21 -23 -18 -31 3 -8 2 -13 -2 -13 -18 3 -32 -2 -32 -12 0 -5 4
-8 9 -5 5 4 4 -5 -2 -18 -8 -17 -14 -21 -20 -13 -5 7 -7 3 -4 -11 3 -13 3 -21
0 -18 -4 3 -12 -3 -20 -13 -13 -19 -9 -51 7 -51 5 0 17 -3 27 -6 15 -5 15 -4
3 5 -13 9 -13 11 0 12 8 1 21 1 29 0 7 -2 10 2 6 8 -3 6 -1 11 4 11 6 0 11 6
11 14 0 10 8 13 21 11 12 -3 19 -2 16 1 -3 4 7 17 24 31 16 14 29 32 29 41 0
15 2 15 10 2 7 -11 10 -11 10 -2 0 8 5 10 13 6 7 -5 6 0 -3 11 -9 11 -10 16
-2 11 6 -4 12 -3 12 2 0 6 8 9 18 8 10 0 16 5 14 13 -2 9 3 11 13 7 9 -3 14
-2 12 2 -6 9 49 63 57 55 3 -4 6 1 6 11 0 9 4 15 9 11 6 -3 15 4 21 15 9 17 8
20 -7 21 -11 0 -13 3 -5 6 6 2 12 9 12 14 0 6 -7 6 -19 0 -10 -6 -22 -7 -26
-3 -5 4 -5 1 -1 -5 4 -7 2 -13 -4 -13 -6 0 -8 -4 -5 -10 3 -5 -1 -11 -9 -11
-30 -3 -34 -4 -43 -13 -5 -5 -3 -6 5 -2 7 4 12 1 12 -8 0 -10 -6 -13 -15 -10
-10 4 -15 0 -15 -12 0 -15 -2 -16 -9 -5 -7 11 -10 9 -15 -7 -5 -13 -13 -19
-22 -15 -8 3 -14 2 -13 -3 1 -5 1 -16 0 -24 -1 -13 -2 -13 -11 0 -5 8 -10 10
-10 4 0 -6 -6 -11 -14 -11 -11 0 -12 6 -6 23 5 12 6 25 3 28 -4 3 -1 6 5 6 6
0 12 10 14 23 2 12 9 21 16 19 8 -1 11 2 6 9 -3 6 0 15 7 20 10 6 11 9 2 9 -8
0 -5 8 7 20 12 12 18 25 15 30 -4 6 1 13 9 16 9 3 16 10 16 16 0 5 -6 6 -12 2
-10 -6 -10 -4 0 8 10 13 10 17 -3 22 -8 3 -15 1 -15 -5z"/>
<path d="M885 4090 c-3 -6 -11 -8 -16 -5 -5 4 -9 1 -9 -5 0 -6 -4 -8 -10 -5
-5 3 -10 1 -10 -6 0 -7 -3 -10 -6 -6 -8 7 -34 -17 -34 -32 0 -6 -5 -11 -11
-11 -5 0 -7 5 -3 12 4 6 3 8 -3 5 -18 -11 -23 -48 -7 -54 8 -3 14 -9 14 -15 0
-5 -5 -6 -12 -2 -7 5 -8 3 -4 -5 5 -7 14 -10 22 -7 8 3 11 0 7 -10 -3 -9 1
-14 13 -14 16 0 17 -2 4 -10 -13 -9 -13 -10 0 -10 19 0 48 -32 42 -48 -2 -6 5
-10 16 -7 16 3 19 -1 14 -17 -3 -14 -1 -19 6 -14 7 4 12 1 12 -7 0 -8 7 -18
16 -21 8 -3 13 -9 11 -13 -7 -11 19 -33 29 -25 4 4 4 -1 1 -10 -3 -10 -3 -17
1 -17 4 1 14 1 22 0 13 -1 13 -2 0 -11 -11 -7 -12 -10 -2 -10 8 0 27 -14 43
-31 20 -22 29 -26 29 -15 0 9 6 16 13 16 9 0 8 3 -2 9 -7 5 -10 14 -7 20 4 7
2 10 -5 9 -7 -2 -18 7 -24 20 -7 12 -21 29 -31 37 -17 13 -17 16 -4 25 12 8
11 10 -7 10 -26 0 -35 11 -23 29 4 8 13 10 20 6 8 -5 11 -4 7 2 -4 6 5 19 19
28 15 9 23 12 20 6 -4 -6 -2 -11 3 -11 6 0 11 6 11 13 0 9 3 8 9 -2 5 -7 14
-10 20 -7 6 4 10 3 9 -2 -2 -5 6 -18 17 -28 12 -11 16 -17 10 -14 -6 3 -3 -3
8 -12 10 -10 16 -22 12 -27 -3 -6 3 -8 14 -6 14 3 18 -1 14 -11 -4 -10 0 -12
13 -7 13 5 15 3 9 -8 -7 -12 -6 -12 7 -1 19 16 20 52 1 52 -7 0 -13 8 -13 18
0 13 -2 14 -9 4 -6 -10 -10 -7 -15 12 -4 15 -11 24 -16 21 -6 -3 -7 1 -4 9 4
12 0 16 -16 16 -11 0 -18 5 -15 10 3 6 -3 10 -15 10 -14 0 -19 4 -14 13 5 7 2
7 -10 -2 -15 -12 -17 -12 -14 0 2 8 -3 13 -9 12 -16 -4 -17 9 -1 25 9 9 9 12
-1 12 -7 0 -11 6 -8 15 4 8 1 17 -5 21 -7 5 -8 2 -3 -6 5 -9 4 -11 -3 -6 -7 4
-12 16 -12 26 0 14 -5 18 -17 13 -11 -4 -14 -3 -9 6 8 13 -23 43 -36 35 -5 -3
-8 0 -8 7 0 8 -4 8 -16 -1 -12 -11 -15 -11 -12 0 4 16 -18 25 -27 10z m22 -44
c-1 -6 8 -12 21 -14 12 -2 22 -10 22 -18 0 -8 5 -12 10 -9 6 3 10 1 10 -5 0
-6 4 -9 8 -6 4 2 9 -5 9 -16 1 -12 8 -25 15 -29 10 -7 10 -9 1 -9 -7 0 -13 -4
-13 -10 0 -19 -36 -45 -62 -45 -18 -1 -24 3 -20 14 4 11 0 13 -16 9 -12 -4
-20 -2 -17 2 3 5 0 12 -6 15 -5 4 -8 14 -5 22 3 8 2 11 -3 8 -5 -3 -17 5 -25
17 -12 16 -13 24 -4 29 7 4 15 6 19 3 4 -2 6 4 5 14 -1 12 5 16 18 14 16 -3
18 -1 9 10 -9 11 -8 14 7 14 10 0 18 -5 17 -10z"/>
<path d="M2747 4023 c3 -7 -5 -10 -21 -9 -14 2 -26 -1 -26 -6 0 -5 -4 -6 -10
-3 -5 3 -10 1 -10 -5 0 -6 -4 -9 -9 -5 -5 3 -12 -4 -16 -15 -4 -11 -10 -18
-15 -15 -10 6 -32 -20 -23 -28 3 -4 -1 -7 -10 -7 -9 0 -17 -6 -17 -14 0 -8 -6
-17 -12 -19 -7 -3 -2 -6 12 -6 20 -1 22 -3 10 -11 -13 -8 -12 -10 3 -10 10 0
16 -3 14 -7 -7 -11 19 -33 29 -25 4 4 4 -1 1 -11 -4 -10 -3 -16 3 -12 5 3 18
-3 29 -14 11 -11 22 -17 25 -13 3 3 6 0 6 -6 0 -7 6 -12 14 -12 7 0 19 -6 25
-14 7 -8 21 -12 33 -8 13 3 19 1 15 -5 -3 -5 0 -10 8 -10 8 0 15 5 15 11 0 5
6 3 13 -5 6 -8 11 -12 10 -10 -1 2 2 12 8 22 7 14 7 19 -2 17 -6 -2 -14 3 -17
11 -3 9 0 11 8 6 8 -5 11 -4 6 3 -4 6 -14 8 -22 5 -13 -5 -15 -1 -10 18 3 13
3 18 0 12 -8 -18 -24 -16 -24 3 0 8 -4 13 -9 9 -5 -3 -16 1 -24 9 -8 8 -17 12
-21 9 -3 -4 -6 1 -6 10 0 11 -5 14 -17 10 -12 -5 -14 -3 -8 7 6 10 4 12 -7 7
-12 -4 -14 -1 -11 14 6 22 23 36 23 19 0 -6 5 -8 10 -5 6 4 7 11 4 17 -4 6 2
6 15 -1 14 -8 21 -8 21 -1 0 5 6 9 13 8 6 -2 11 2 10 8 -1 7 6 10 17 7 12 -3
20 0 20 7 0 10 3 10 16 0 8 -8 14 -9 13 -4 -1 5 -1 16 0 24 1 11 3 12 9 3 6
-9 14 -3 26 19 11 17 14 28 7 24 -7 -4 -19 -2 -28 6 -15 11 -16 11 -10 -6 6
-14 4 -16 -5 -8 -19 15 -107 20 -101 5z"/>
<path d="M2986 3979 c3 -5 10 -6 16 -3 7 4 8 2 4 -4 -4 -8 -15 -8 -31 -2 -19
7 -25 6 -25 -5 0 -8 -6 -12 -13 -9 -7 2 -24 -6 -37 -18 -14 -13 -28 -22 -32
-20 -5 1 -8 -2 -8 -8 0 -5 -8 -10 -17 -10 -14 0 -15 -2 -4 -9 11 -7 11 -9 0
-14 -10 -4 -10 -6 -1 -6 6 -1 12 -10 12 -21 0 -11 5 -20 11 -20 6 0 9 -7 6
-15 -4 -8 -1 -17 5 -21 7 -5 8 -2 3 6 -6 9 -4 11 4 6 7 -5 10 -14 7 -22 -3 -9
0 -11 11 -7 13 5 15 2 10 -11 -4 -10 -3 -15 3 -11 6 3 13 -1 16 -9 3 -9 10
-13 15 -10 5 3 9 0 9 -6 0 -6 5 -8 10 -5 6 3 10 -1 10 -10 0 -9 4 -14 9 -11 5
4 12 0 14 -6 4 -10 6 -10 6 0 1 10 5 9 17 -3 13 -12 19 -13 24 -5 6 9 11 7 19
-6 6 -11 11 -13 11 -6 0 7 5 10 12 6 7 -4 8 -3 4 5 -4 6 -11 9 -16 6 -4 -3 -6
4 -3 15 3 11 0 20 -6 20 -6 0 -11 7 -11 15 0 9 -7 18 -15 21 -8 4 -12 10 -9
15 3 5 2 9 -3 8 -20 -3 -34 2 -28 11 3 6 -1 10 -10 10 -9 0 -13 5 -10 10 3 6
-1 10 -9 10 -9 0 -16 5 -16 12 0 6 -3 9 -6 5 -8 -7 -34 17 -34 32 0 5 16 8 35
7 19 -2 35 0 35 5 0 6 8 6 18 0 13 -7 23 -6 32 2 9 8 11 8 6 0 -4 -7 1 -9 15
-6 16 4 17 8 7 14 -18 12 -5 11 27 -1 19 -7 24 -7 19 1 -5 8 1 10 19 7 20 -4
24 -2 19 11 -5 14 -4 14 14 1 10 -8 16 -10 12 -6 -4 5 -3 14 2 21 7 8 2 15
-16 24 -14 6 -23 7 -20 3 3 -5 -1 -9 -9 -9 -8 0 -12 4 -9 8 2 4 -6 13 -18 20
-20 10 -21 10 -11 -2 9 -11 7 -14 -12 -14 -16 0 -21 4 -17 15 5 13 3 13 -11 2
-9 -8 -22 -10 -29 -6 -19 12 -39 14 -32 3z m-56 -33 c0 -2 -8 -10 -17 -17 -16
-13 -17 -12 -4 4 13 16 21 21 21 13z"/>
<path d="M2535 3930 c3 -5 1 -11 -5 -15 -5 -3 -10 0 -10 7 -1 10 -4 9 -13 -2
-14 -18 -51 -15 -40 3 5 8 2 8 -9 0 -8 -7 -19 -9 -23 -5 -5 4 -5 2 -2 -4 4 -7
-14 -9 -53 -8 -56 2 -83 -7 -60 -21 5 -3 10 -1 10 6 0 7 5 8 13 3 6 -5 26 -8
42 -7 17 1 53 3 80 3 28 1 56 7 64 13 12 10 14 9 8 -5 -4 -12 -2 -15 8 -11 8
3 13 9 10 13 -3 5 2 10 10 12 10 2 7 7 -10 15 -14 6 -23 7 -20 3z"/>
<path d="M2230 3890 c0 -14 -3 -20 -8 -14 -10 17 -100 9 -121 -10 -10 -9 -20
-14 -23 -11 -3 3 -8 -1 -11 -9 -4 -10 0 -14 14 -13 10 1 19 8 20 17 0 10 3 9
9 -5 5 -11 9 -15 9 -8 1 6 10 10 20 8 13 -2 18 1 15 9 -3 7 2 13 11 13 8 0 15
-5 15 -10 0 -6 5 -6 13 0 6 5 24 9 39 8 15 0 25 2 22 6 -2 4 3 12 10 18 11 9
16 9 22 0 4 -8 3 -9 -4 -5 -7 4 -12 2 -12 -3 0 -21 33 -7 37 15 3 14 -45 15
-53 2 -4 -6 -10 -5 -15 3 -6 10 -9 7 -9 -11z m-93 -24 c0 -8 -6 -12 -15 -9
-11 5 -11 7 0 14 7 5 13 9 14 9 0 0 1 -6 1 -14z"/>
<path d="M3260 3895 c-10 -12 -16 -13 -26 -4 -10 8 -14 8 -14 0 0 -6 -3 -10
-7 -10 -22 4 -33 -2 -27 -13 5 -10 4 -10 -6 -1 -10 9 -17 7 -32 -10 -11 -12
-17 -16 -13 -9 3 6 1 12 -4 12 -6 0 -11 -8 -11 -17 0 -15 -2 -16 -10 -3 -9 14
-15 7 -11 -14 1 -5 -6 -5 -16 -2 -14 6 -16 5 -5 -5 6 -7 12 -21 12 -31 0 -10
7 -18 18 -18 14 0 15 -2 2 -10 -13 -8 -13 -10 2 -10 11 0 16 -6 13 -20 -3 -14
2 -20 13 -20 15 0 15 -2 2 -10 -13 -8 -12 -10 3 -10 9 0 17 -5 17 -11 0 -5 -6
-7 -12 -3 -8 4 -10 3 -5 -2 5 -5 13 -10 18 -10 5 -1 14 -2 20 -3 5 0 8 -5 5
-10 -3 -5 6 -12 19 -15 14 -4 23 -11 20 -16 -6 -9 16 -15 38 -11 5 1 6 -3 3
-8 -3 -5 0 -11 8 -14 9 -4 16 3 18 17 6 30 -1 48 -15 39 -7 -4 -6 1 2 11 8 9
10 16 5 14 -5 -2 -11 2 -13 7 -1 6 -24 30 -50 55 -26 25 -45 52 -43 59 3 9 0
11 -9 6 -8 -5 -10 -4 -6 0 12 14 38 15 30 2 -4 -8 -1 -7 9 1 13 10 17 10 21 0
4 -10 6 -10 6 1 1 11 4 11 18 0 11 -10 14 -10 9 -1 -4 6 -2 12 3 12 6 0 11 -5
11 -11 0 -8 4 -8 13 -2 6 5 23 10 35 11 18 1 22 -3 18 -16 -5 -14 -3 -14 9 2
8 10 24 20 37 21 37 4 38 4 32 20 -4 8 -13 15 -21 15 -8 0 -11 5 -7 11 4 8 0
9 -15 4 -15 -5 -21 -2 -21 9 0 9 -3 15 -7 15 -29 -5 -73 3 -68 11 10 15 -1 12
-15 -5z"/>
<path d="M2040 3845 c-7 -9 -19 -14 -27 -11 -8 3 -16 -1 -19 -8 -3 -8 -13 -15
-22 -15 -39 -1 -51 -5 -46 -13 8 -12 -10 -10 -26 5 -11 9 -11 8 0 -7 13 -18
13 -19 -1 -14 -9 4 -26 0 -38 -8 -11 -8 -21 -12 -21 -8 0 3 -7 1 -15 -6 -8 -7
-15 -9 -15 -5 0 5 -9 0 -20 -10 -11 -10 -20 -14 -20 -9 0 5 -5 1 -11 -9 -6 -9
-15 -14 -21 -11 -6 4 -9 1 -6 -6 5 -17 30 -26 26 -10 -2 7 3 15 10 17 8 3 10
-1 5 -14 -4 -11 3 -7 20 11 15 16 27 25 27 21 0 -4 6 -2 13 4 8 6 18 7 22 3 5
-4 5 -2 1 5 -3 6 -2 14 3 17 5 4 12 -2 14 -11 4 -16 5 -16 6 1 1 12 6 16 16
12 8 -3 15 0 15 6 0 6 3 9 6 6 3 -4 15 3 26 14 17 17 22 18 29 7 6 -10 11 -11
17 -3 12 17 39 23 51 11 6 -6 11 -9 12 -6 2 11 4 59 3 59 -1 0 -7 -7 -14 -15z
m-230 -99 c0 -2 -8 -10 -17 -17 -16 -13 -17 -12 -4 4 13 16 21 21 21 13z"/>
<path d="M3360 3752 c-19 -14 -29 -19 -23 -11 10 13 10 16 -2 16 -8 0 -13 -2
-10 -5 2 -3 0 -13 -6 -23 -5 -11 -6 -19 -1 -19 5 0 9 -10 8 -22 0 -13 4 -22
11 -21 9 2 10 -4 5 -20 -11 -31 -4 -57 16 -57 15 0 15 -2 2 -10 -13 -8 -12
-10 4 -10 12 0 16 -5 12 -15 -3 -8 -2 -14 2 -14 18 3 32 -2 32 -11 0 -19 48
-61 53 -47 3 7 6 4 6 -6 1 -15 3 -16 15 -5 10 9 11 17 4 25 -6 7 -8 20 -4 28
3 9 -1 18 -10 22 -13 5 -13 7 -2 14 10 7 11 9 0 9 -7 0 -10 5 -7 10 3 6 3 10
-2 10 -4 0 -14 14 -22 31 -10 23 -16 28 -22 18 -6 -10 -9 -8 -9 9 0 13 -4 21
-8 18 -5 -3 -9 1 -9 7 0 7 11 18 24 24 13 6 21 8 18 3 -3 -4 2 -10 9 -13 8 -3
17 -1 20 6 3 9 5 9 5 0 1 -6 10 -9 23 -5 15 4 19 2 13 -7 -6 -10 -3 -11 14 -2
16 9 21 9 21 -1 0 -6 7 -3 15 8 13 16 14 17 9 1 -7 -19 15 -21 28 -2 4 6 8 1
8 -10 0 -17 3 -16 18 8 10 15 22 24 27 20 4 -5 5 -2 1 5 -6 10 -11 10 -22 1
-11 -9 -14 -8 -14 2 0 8 -9 20 -20 27 -13 8 -20 8 -20 1 0 -5 -5 -7 -10 -4 -6
4 -8 11 -5 16 3 5 -1 6 -9 3 -9 -3 -16 -1 -16 4 0 6 -9 9 -20 7 -11 -2 -22 1
-25 6 -4 5 -12 6 -18 2 -14 -9 -49 -9 -63 -1 -5 4 -25 -5 -44 -20z"/>
<path d="M4560 3765 c-1 -5 -2 -14 -1 -19 1 -5 -5 -6 -14 -3 -9 4 -15 1 -15
-8 0 -7 -5 -17 -12 -21 -7 -5 -8 -3 -3 7 8 12 6 12 -8 0 -9 -7 -14 -17 -11
-22 3 -5 -4 -9 -16 -9 -12 0 -19 -4 -16 -9 6 -8 -30 -25 -47 -22 -5 1 -6 -3
-2 -9 3 -5 1 -10 -4 -10 -6 0 -11 -8 -11 -17 0 -15 -2 -16 -10 -3 -9 13 -14 8
-12 -12 1 -3 -6 -12 -15 -20 -9 -7 -14 -8 -10 -2 3 6 0 11 -7 11 -8 0 -12 -7
-9 -14 3 -8 0 -13 -8 -11 -8 2 -13 -3 -11 -11 3 -12 1 -12 -14 0 -16 12 -17
12 -11 -3 4 -12 2 -18 -7 -18 -8 0 -17 -7 -20 -16 -4 -9 -9 -14 -13 -10 -3 3
-13 -4 -21 -16 -11 -15 -12 -23 -4 -26 6 -2 9 -9 6 -17 -3 -7 0 -16 7 -21 8
-4 10 -3 5 4 -4 7 -2 12 4 12 6 0 13 -14 17 -30 5 -26 8 -29 21 -18 13 11 14
11 8 0 -5 -8 -1 -19 10 -28 11 -9 12 -12 4 -8 -8 4 -12 3 -7 -1 11 -13 45 -16
52 -5 4 6 0 13 -8 16 -9 3 -18 16 -21 30 -4 13 -11 24 -16 24 -5 0 -6 7 -3 17
4 11 3 14 -5 9 -7 -4 -12 -1 -12 8 0 8 5 18 11 21 6 4 8 14 5 22 -3 8 -2 11 3
8 13 -7 62 16 55 26 -3 5 2 9 10 9 9 0 16 5 16 10 0 6 5 10 11 10 5 0 7 -6 3
-12 -5 -8 -2 -8 10 1 9 8 16 10 15 5 -4 -22 2 -34 17 -34 8 0 13 -4 10 -8 -8
-13 28 -11 36 2 11 16 10 28 -1 21 -24 -14 -37 58 -16 88 8 12 15 17 15 11 0
-5 -6 -16 -12 -24 -11 -12 -10 -12 5 -1 9 7 17 18 17 23 0 14 27 38 34 31 3
-4 6 -1 6 5 0 7 12 11 30 10 19 -1 29 -7 26 -14 -3 -8 3 -11 15 -9 16 3 18 1
10 -9 -8 -10 -7 -17 4 -26 9 -7 19 -10 22 -6 4 4 13 -4 21 -16 7 -13 11 -15 8
-5 -3 9 0 17 6 17 9 0 9 3 0 12 -16 16 -15 31 1 22 7 -4 9 -3 4 2 -5 5 -14 9
-20 9 -7 0 -12 5 -12 12 0 6 -4 15 -9 20 -5 5 -6 2 -1 -6 5 -9 4 -12 -3 -7 -7
4 -12 17 -12 29 0 18 -2 19 -10 7 -8 -12 -10 -11 -10 8 0 15 -6 22 -19 22 -11
0 -22 6 -24 13 -3 6 -6 8 -7 2z"/>
<path d="M501 3705 c-1 -17 -3 -17 -11 -5 -7 11 -10 11 -10 2 0 -7 -4 -10 -10
-7 -9 6 -14 -8 -11 -27 0 -5 -6 -8 -14 -8 -9 0 -12 -6 -8 -15 3 -10 0 -15 -8
-13 -8 2 -14 -5 -14 -15 0 -10 -7 -22 -15 -27 -13 -8 -13 -11 -1 -22 11 -11
13 -11 6 1 -5 9 -4 12 3 7 6 -4 9 -13 5 -21 -4 -13 1 -17 23 -14 4 0 12 -10
18 -23 6 -13 22 -24 34 -26 13 -2 20 -8 16 -14 -5 -7 0 -9 14 -6 16 4 19 2 15
-10 -4 -10 -2 -13 5 -8 7 4 12 2 12 -4 0 -6 4 -9 8 -6 5 3 15 -4 22 -15 8 -10
18 -19 23 -19 14 0 37 -27 29 -35 -4 -5 1 -5 11 -2 10 4 17 2 17 -6 0 -16 41
-42 59 -38 8 1 12 -3 8 -11 -3 -9 2 -14 14 -14 11 0 19 4 19 8 0 4 16 23 36
43 41 42 65 82 58 100 -6 16 -30 13 -47 -5 -10 -10 -9 -12 3 -6 9 5 8 2 -2 -7
-10 -8 -18 -17 -18 -21 0 -17 -34 -39 -61 -41 -21 -1 -28 2 -25 12 3 7 1 13
-4 13 -25 0 -50 20 -50 40 0 6 -4 9 -8 6 -4 -2 -9 7 -10 20 -1 14 2 23 7 20 5
-3 11 9 13 28 4 36 -2 38 -40 17 -13 -7 -21 -18 -19 -25 10 -26 -36 -10 -75
27 -23 20 -48 37 -55 37 -9 0 -11 5 -6 13 4 6 8 19 10 27 1 8 7 16 13 18 5 2
7 9 3 15 -4 7 0 8 12 3 16 -6 16 -4 4 11 -8 9 -9 14 -3 10 16 -9 23 13 13 38
l-8 20 0 -20z"/>
<path d="M1685 3690 c-3 -6 -10 -8 -14 -6 -4 3 -8 -1 -8 -9 0 -7 8 -13 18 -12
11 1 15 7 11 17 -5 13 -3 13 10 2 13 -11 18 -11 24 0 4 7 4 10 -1 6 -4 -4 -14
-3 -21 3 -8 7 -14 7 -19 -1z"/>
<path d="M3626 3682 c-3 -5 1 -9 9 -9 8 0 15 4 15 9 0 4 -4 8 -9 8 -6 0 -12
-4 -15 -8z"/>
<path d="M1622 3655 c2 -14 -3 -21 -19 -23 -13 -2 -23 -8 -23 -13 0 -6 -5 -7
-12 -3 -8 5 -9 2 -5 -9 3 -9 1 -19 -5 -23 -7 -4 -8 -3 -4 4 4 7 2 12 -3 12 -6
0 -11 -4 -11 -10 0 -5 -6 -7 -14 -4 -9 3 -17 -3 -21 -15 -3 -12 -10 -19 -15
-16 -5 3 -17 -6 -28 -20 -11 -14 -25 -25 -31 -25 -6 0 -11 -4 -11 -10 0 -5 8
-7 18 -4 13 5 14 4 3 -4 -8 -6 -21 -8 -29 -4 -12 4 -14 1 -9 -13 7 -16 5 -16
-10 -4 -15 12 -16 12 -10 -3 6 -17 -8 -24 -36 -19 -4 1 -2 -9 4 -21 11 -21 11
-22 -4 -9 -15 12 -17 11 -17 -3 0 -10 -4 -15 -9 -11 -5 3 -12 -4 -16 -15 -4
-11 -10 -18 -14 -15 -5 2 -17 -5 -27 -17 -11 -12 -13 -18 -5 -13 11 6 13 4 8
-8 -10 -27 12 -20 25 8 6 13 14 22 18 20 4 -2 12 7 19 21 6 14 16 22 22 19 6
-4 13 3 16 15 4 14 11 19 22 15 8 -3 12 -3 8 1 -4 4 12 20 35 36 24 15 39 28
35 28 -4 0 -2 6 5 14 7 8 17 11 22 8 5 -3 6 1 1 8 -6 10 -4 12 7 7 21 -7 31 3
17 19 -7 8 -6 14 2 20 8 4 9 3 5 -4 -4 -7 -2 -12 3 -12 6 0 11 5 11 11 0 5 4
8 9 4 5 -3 16 1 24 9 8 8 18 12 21 8 4 -3 4 2 0 12 -5 13 -4 17 4 12 6 -3 14
-1 18 5 4 6 9 7 13 2 3 -5 13 -2 22 7 12 13 13 18 2 29 -10 9 -13 9 -13 -1 0
-9 -3 -9 -11 2 -8 12 -9 11 -7 -5z m-132 -109 c0 -2 -8 -10 -17 -17 -16 -13
-17 -12 -4 4 13 16 21 21 21 13z"/>
<path d="M3632 3640 c4 -11 -1 -17 -16 -18 -11 -2 -30 -4 -41 -6 -11 -2 -26
-4 -32 -5 -7 0 -13 -6 -13 -12 0 -5 5 -7 12 -3 7 4 8 3 4 -5 -11 -18 -15 -61
-5 -55 5 3 9 -2 9 -11 0 -10 -5 -14 -12 -9 -10 5 -10 4 -1 -6 6 -7 9 -19 6
-26 -3 -8 2 -16 10 -20 9 -3 13 -12 10 -21 -4 -9 1 -21 12 -29 9 -7 15 -19 12
-27 -3 -9 1 -14 11 -13 9 0 16 -5 15 -11 -2 -7 4 -13 13 -13 8 0 12 -4 9 -10
-3 -5 -1 -10 6 -10 6 0 18 -8 26 -17 8 -10 12 -12 8 -5 -3 6 -1 12 6 12 8 0 8
4 -1 15 -10 12 -10 15 0 15 9 0 9 4 -1 17 -12 14 -12 16 1 9 13 -6 13 -5 0 6
-9 7 -14 20 -12 29 1 9 -4 24 -12 32 -12 12 -13 17 -3 20 7 3 5 6 -5 6 -11 1
-18 9 -18 22 0 14 -5 19 -14 16 -11 -5 -12 1 -3 30 7 22 13 30 17 20 3 -9 15
-13 33 -11 21 2 27 -1 23 -11 -3 -9 0 -12 10 -8 8 3 22 -1 31 -8 14 -12 16
-12 8 0 -5 8 6 5 23 -8 19 -13 32 -17 32 -10 0 7 4 8 13 2 11 -8 18 -9 55 -5
6 1 12 7 12 13 0 5 -4 7 -10 4 -5 -3 -10 3 -10 14 0 12 -3 20 -7 19 -5 -2 -8
0 -8 5 0 8 -52 37 -67 37 -5 0 -16 7 -25 15 -8 8 -19 13 -24 10 -5 -4 -9 -1
-9 5 0 6 -4 9 -9 5 -5 -3 -17 2 -25 11 -10 10 -16 11 -16 3 0 -8 -5 -8 -17 2
-14 12 -16 12 -11 -1z"/>
<path d="M2535 3591 c6 -10 4 -13 -7 -8 -9 3 -21 0 -28 -6 -10 -9 -11 -9 -6 1
4 6 3 12 -1 12 -5 0 -15 -6 -22 -12 -11 -10 -14 -10 -18 0 -3 6 -9 12 -14 12
-6 0 -8 -4 -5 -9 7 -10 -13 -9 -31 2 -6 4 -19 0 -27 -9 -12 -11 -16 -12 -16
-2 0 8 -3 9 -8 3 -9 -12 -32 -13 -51 -1 -9 6 -12 5 -8 0 9 -15 -24 -30 -60
-29 -18 1 -33 -4 -33 -9 0 -6 -5 -4 -10 4 -8 13 -10 13 -10 -1 0 -11 -9 -15
-30 -14 -18 1 -36 -5 -46 -17 -10 -10 -25 -18 -36 -18 -10 0 -18 -4 -18 -9 0
-5 -12 -8 -26 -6 -15 1 -28 -3 -31 -11 -3 -8 -9 -14 -15 -14 -5 0 -6 6 -3 13
4 6 0 4 -8 -5 -16 -21 -31 -24 -22 -5 4 6 -1 3 -9 -7 -9 -11 -16 -16 -16 -11
0 5 -6 1 -13 -9 -7 -9 -20 -18 -29 -20 -10 -1 -26 -10 -38 -21 -11 -10 -20
-15 -20 -11 0 4 -7 0 -16 -9 -9 -9 -23 -14 -30 -11 -9 3 -11 -1 -7 -12 3 -9 3
-14 -2 -10 -4 4 -16 -3 -27 -15 -11 -12 -16 -15 -12 -7 7 12 5 13 -8 3 -8 -7
-19 -9 -23 -5 -5 4 -5 -1 -1 -12 5 -15 2 -17 -14 -13 -11 3 -23 0 -27 -5 -3
-7 -1 -8 5 -4 19 12 14 -10 -7 -28 -11 -10 -25 -15 -31 -11 -6 3 -9 3 -8 -2 2
-5 -27 -38 -64 -74 -38 -35 -68 -70 -68 -77 0 -7 -4 -10 -10 -7 -5 3 -10 1
-10 -5 0 -6 -5 -8 -12 -4 -10 6 -10 4 0 -8 10 -13 10 -17 -3 -22 -8 -3 -15
-10 -15 -16 0 -15 -26 -40 -34 -35 -3 3 -4 2 -1 -2 3 -3 -5 -18 -17 -31 -13
-14 -17 -22 -10 -18 6 4 12 2 12 -3 0 -6 -7 -11 -16 -11 -8 0 -12 -4 -9 -10 3
-5 1 -10 -5 -10 -6 0 -8 -4 -5 -10 3 -5 1 -10 -4 -10 -6 0 -11 -7 -11 -16 0
-8 -4 -12 -10 -9 -10 6 -14 -7 -11 -32 1 -6 -4 -15 -10 -19 -8 -5 -9 -3 -4 6
6 9 4 11 -4 6 -7 -5 -10 -10 -7 -13 3 -3 -1 -15 -9 -27 -8 -11 -15 -31 -15
-44 0 -16 -4 -21 -12 -16 -10 5 -10 4 -1 -6 9 -10 8 -16 -3 -28 -8 -8 -13 -21
-10 -28 3 -8 1 -14 -3 -14 -5 0 -12 -7 -15 -16 -6 -15 -4 -15 11 -3 17 13 17
13 1 -7 -10 -11 -19 -30 -21 -43 -2 -12 -10 -27 -18 -32 -11 -7 -12 -9 0 -9
11 0 11 -3 1 -15 -7 -8 -9 -15 -6 -15 4 0 2 -9 -4 -19 -7 -14 -6 -21 3 -24 6
-3 3 -6 -8 -6 -17 -1 -17 -3 -5 -11 12 -8 12 -10 1 -10 -8 0 -11 -3 -8 -6 3
-4 2 -15 -4 -25 -7 -14 -6 -19 3 -19 8 0 9 -3 3 -8 -12 -8 -13 -27 -2 -38 4
-5 -2 -16 -15 -26 -13 -10 -18 -18 -13 -17 24 3 28 -2 10 -14 -14 -11 -15 -16
-5 -22 9 -6 11 -4 5 5 -5 8 -4 11 3 6 12 -7 6 -31 -12 -55 -8 -11 -8 -13 1 -8
8 5 11 -1 9 -18 -1 -14 -6 -28 -9 -32 -4 -3 -2 -12 4 -19 7 -8 7 -14 0 -19 -7
-4 -5 -15 7 -33 9 -14 11 -23 5 -19 -7 5 -13 4 -13 -2 0 -6 6 -11 13 -11 8 0
7 -4 -3 -10 -10 -6 -11 -10 -2 -10 6 0 12 -5 12 -11 0 -5 -4 -8 -9 -5 -5 4 -7
-3 -4 -14 3 -11 10 -17 17 -13 6 4 5 -1 -2 -10 -8 -9 -10 -22 -6 -29 5 -7 7
-21 5 -32 -2 -12 1 -16 9 -11 9 5 10 1 5 -14 -4 -13 -2 -21 5 -21 7 0 10 -8 7
-20 -3 -11 -1 -20 3 -20 4 0 6 -9 3 -20 -3 -11 0 -20 6 -20 6 0 11 -12 11 -26
0 -14 7 -33 16 -41 9 -10 14 -26 11 -40 -3 -15 1 -27 8 -29 7 -3 12 -16 10
-29 -1 -15 2 -22 8 -18 6 4 8 -2 5 -15 -4 -13 -2 -20 6 -19 6 1 10 -6 10 -15
-1 -10 2 -16 6 -13 5 3 10 -5 12 -17 2 -13 9 -22 17 -20 8 2 11 -3 8 -12 -4
-9 -2 -18 4 -21 5 -4 7 -11 3 -16 -3 -5 0 -8 8 -7 7 2 13 -5 13 -15 0 -10 7
-22 15 -27 8 -5 15 -14 15 -19 0 -6 9 -17 20 -26 11 -9 13 -14 5 -10 -10 4 -9
2 3 -8 9 -8 17 -18 17 -22 0 -4 8 -15 18 -24 10 -9 21 -24 25 -33 3 -10 14
-18 22 -18 9 0 13 -4 10 -10 -3 -5 -1 -10 5 -10 6 0 8 -4 5 -10 -3 -5 1 -10 9
-10 8 0 18 -9 21 -20 6 -18 17 -25 38 -21 5 1 6 -3 2 -9 -3 -5 1 -13 9 -16 9
-3 16 -14 16 -23 0 -14 2 -14 10 -1 8 13 10 13 10 -1 0 -9 7 -20 16 -23 9 -3
12 -11 8 -18 -5 -8 -1 -8 12 2 10 8 16 11 12 6 -7 -8 14 -36 26 -36 3 0 15 -9
26 -20 11 -11 27 -20 35 -20 8 0 15 -5 15 -11 0 -5 4 -8 9 -4 6 3 13 0 18 -7
4 -7 20 -19 35 -27 15 -8 25 -18 22 -22 -3 -5 1 -6 9 -3 8 3 21 -2 30 -10 8
-8 17 -12 21 -9 3 4 6 1 6 -6 0 -7 5 -9 10 -6 6 3 10 1 10 -5 0 -6 5 -8 10 -5
6 3 10 1 10 -6 0 -7 3 -10 6 -6 4 3 21 -1 38 -10 31 -17 37 -19 69 -21 11 -1
15 -7 11 -13 -5 -8 3 -10 24 -7 17 2 29 1 26 -3 -2 -5 5 -13 17 -19 12 -7 19
-8 15 -2 -3 5 1 13 10 16 10 4 13 2 8 -6 -5 -7 0 -9 14 -6 13 4 20 2 16 -3 -3
-6 6 -8 20 -5 17 3 26 0 26 -9 0 -8 7 -11 20 -8 11 3 28 -1 37 -8 10 -8 14 -9
10 -2 -5 8 0 11 13 10 11 -1 20 -4 20 -7 0 -11 45 -9 52 3 5 8 8 7 8 -5 0 -14
4 -16 25 -8 19 7 27 6 34 -8 6 -9 11 -12 11 -6 0 6 7 11 15 11 8 0 15 -5 15
-11 0 -6 5 -4 10 4 5 8 10 11 10 6 0 -5 7 -3 15 4 13 11 14 10 8 -6 -6 -16 -4
-17 8 -7 12 10 18 10 29 0 10 -10 11 -9 5 2 -6 11 -4 13 8 8 10 -3 17 -2 17 4
0 6 7 6 20 -1 16 -9 22 -8 26 5 3 8 10 12 15 9 5 -3 6 -11 2 -17 -4 -7 0 -6
10 2 9 7 17 10 17 5 0 -4 5 -3 12 4 15 15 31 16 22 0 -5 -7 -3 -8 6 -3 7 5 28
9 47 11 18 1 40 7 48 14 8 6 18 9 23 7 4 -3 14 -2 22 3 9 5 19 5 26 -1 8 -7
15 -6 20 2 5 8 3 9 -6 4 -9 -5 -11 -4 -6 3 4 7 18 12 32 12 14 0 41 7 62 17
20 9 40 15 45 15 4 -1 7 2 7 7 0 4 15 8 33 7 19 0 32 4 32 12 0 6 3 12 8 12 4
0 23 9 44 20 20 10 41 16 46 13 6 -3 8 -2 5 3 -3 5 9 20 26 34 17 13 27 18 21
9 -6 -8 -3 -7 6 3 9 9 19 14 23 11 3 -3 8 2 12 11 3 9 10 14 14 11 4 -3 11 2
14 11 3 8 10 12 16 9 5 -3 10 1 10 10 0 9 5 13 11 10 6 -4 18 3 26 15 12 18
17 19 25 9 8 -11 9 -11 5 2 -6 18 27 51 39 41 4 -4 4 1 1 10 -4 12 -2 15 7 12
8 -3 17 0 22 7 5 8 3 10 -6 4 -9 -5 -11 -4 -6 3 4 7 14 12 22 12 8 0 13 3 12
7 -2 5 1 9 6 10 13 2 28 31 22 42 -3 4 4 8 17 7 17 -1 21 4 19 19 -2 11 0 17
4 12 9 -9 44 22 44 40 0 7 7 16 15 19 13 5 13 9 3 22 -9 11 -9 14 -1 9 7 -5
18 3 27 20 8 15 15 24 16 18 0 -13 42 67 43 83 0 7 6 11 12 8 6 -2 12 1 13 7
3 33 11 52 20 50 6 -2 9 3 6 11 -3 7 2 16 10 19 9 4 13 13 10 22 -3 8 -1 15 4
15 6 0 9 9 7 21 -3 16 0 19 13 14 9 -3 13 -3 10 0 -4 4 -2 19 3 34 6 14 12 42
15 61 2 19 12 45 20 58 9 14 11 21 5 18 -6 -4 -11 -2 -11 3 0 6 4 11 9 11 5 0
8 16 6 35 -1 19 1 32 6 30 4 -3 10 2 13 11 9 22 8 26 -5 18 -6 -3 -3 5 6 20
14 20 14 26 4 26 -11 0 -11 2 1 10 8 5 11 10 6 10 -5 0 -2 8 5 17 12 14 12 16
0 9 -9 -6 -12 -5 -9 5 3 8 11 13 17 11 7 -1 10 2 6 8 -3 6 -10 8 -15 5 -4 -3
-7 2 -6 11 1 8 9 20 17 25 11 7 10 9 -6 9 -11 0 -15 4 -10 8 15 11 17 33 4 48
-9 12 -9 13 3 9 9 -4 15 0 15 9 0 8 -4 13 -8 11 -4 -3 -9 2 -13 10 -3 8 0 17
6 21 7 4 8 3 4 -4 -4 -7 -2 -12 4 -12 7 0 9 7 6 16 -3 9 -6 18 -6 20 0 3 -6 2
-12 -2 -10 -6 -10 -4 0 7 14 15 17 33 4 25 -5 -3 -9 1 -9 9 0 8 3 12 7 10 4
-2 7 2 7 10 0 8 -3 12 -7 10 -4 -2 -7 21 -7 51 0 37 -4 59 -14 65 -12 7 -12 9
0 9 11 0 10 4 -5 16 -19 15 -19 16 0 9 18 -5 19 -4 4 12 -8 10 -14 26 -13 36
2 9 0 17 -4 17 -8 0 -10 7 -13 63 -2 20 -6 37 -11 37 -4 0 -5 5 -2 10 3 6 2
10 -3 10 -5 0 -9 6 -10 13 -2 30 -12 59 -26 73 -18 17 -21 28 -6 19 6 -3 7 1
4 9 -3 9 -10 14 -14 11 -4 -3 -11 2 -14 11 -4 10 -2 13 7 8 6 -5 -1 9 -17 31
-16 21 -24 35 -17 31 10 -7 11 -4 2 13 -7 11 -14 21 -17 21 -3 0 -2 -6 2 -12
4 -7 3 -9 -1 -5 -5 4 -10 15 -11 25 -2 9 -8 18 -13 20 -6 2 -11 10 -11 18 0 8
-4 14 -10 14 -5 0 -10 6 -10 14 0 7 -7 19 -15 26 -8 6 -14 15 -13 18 2 20 -4
25 -13 12 -8 -12 -9 -10 -4 8 5 17 2 22 -11 22 -10 0 -15 3 -12 6 4 3 -7 18
-23 33 -16 16 -29 33 -29 40 0 10 -14 15 -34 12 -5 -1 -4 5 4 13 10 13 10 16
-3 16 -8 0 -18 7 -21 16 -3 8 -10 12 -16 9 -5 -3 -10 -2 -10 4 0 5 -11 22 -25
37 -14 15 -25 24 -25 20 0 -4 -7 -1 -15 8 -8 8 -15 20 -15 26 0 7 -7 9 -16 6
-8 -3 -12 -2 -9 4 3 6 1 10 -5 10 -6 0 -8 5 -4 12 4 6 3 8 -4 5 -14 -9 -43 3
-36 14 3 5 -4 9 -15 9 -11 0 -22 9 -26 21 -6 17 -9 19 -16 8 -5 -8 -9 -9 -9
-4 0 6 -14 16 -30 23 -17 8 -28 18 -25 22 3 5 -3 7 -15 5 -11 -2 -19 1 -17 7
1 6 -9 12 -22 14 -14 3 -33 12 -43 21 -14 13 -18 13 -19 2 0 -8 -4 -6 -8 5 -5
13 -18 20 -41 21 -19 1 -36 7 -38 13 -2 7 -8 10 -13 6 -5 -3 -9 0 -9 6 0 6 -5
8 -11 5 -5 -4 -20 1 -31 12 -12 10 -18 12 -13 4 4 -8 -3 -6 -21 5 -15 11 -25
13 -21 7 6 -9 3 -11 -7 -7 -9 3 -16 10 -16 14 0 4 -14 6 -30 5 -17 -1 -33 2
-37 8 -4 6 -1 7 7 2 9 -5 11 -4 6 4 -6 9 -11 9 -24 -1 -12 -10 -14 -10 -8 0 5
9 -4 12 -36 13 -24 0 -52 3 -63 5 -42 9 -70 11 -80 6 -17 -11 -35 -11 -29 0 4
6 -7 8 -29 5 -19 -2 -41 0 -48 7 -9 8 -10 8 -4 -3z"/>
<path d="M3854 3473 c-11 -17 -92 -26 -110 -12 -7 6 -10 -3 -9 -28 0 -20 -4
-41 -11 -47 -8 -8 -7 -14 4 -25 13 -13 12 -16 -4 -22 -17 -7 -17 -8 -2 -8 11
-1 15 -6 12 -15 -3 -8 0 -24 6 -36 10 -18 9 -21 -2 -15 -8 4 -8 2 2 -7 8 -7
16 -20 18 -28 2 -8 8 -17 13 -18 5 -2 7 -8 3 -13 -3 -5 0 -9 6 -9 7 0 9 -7 6
-16 -3 -8 -2 -13 3 -10 5 3 11 -1 14 -8 9 -22 44 -39 44 -21 0 8 -4 12 -8 10
-4 -3 -9 2 -12 10 -4 9 -1 12 9 8 7 -3 14 0 14 6 0 6 -4 11 -8 11 -4 0 -8 9
-9 20 -1 13 2 18 10 13 7 -3 3 4 -8 17 -16 18 -17 22 -4 18 14 -6 15 -3 5 18
-6 13 -15 24 -21 24 -5 0 -3 5 5 10 13 8 13 10 -2 10 -10 0 -15 7 -14 17 2 10
-3 24 -11 31 -7 7 -13 18 -13 25 0 6 7 2 16 -9 8 -10 13 -14 10 -7 -4 6 -2 14
4 18 5 3 10 1 10 -4 0 -6 7 -11 16 -11 9 0 23 -8 31 -17 8 -11 11 -12 7 -3 -7
12 -5 13 8 3 8 -7 17 -11 20 -8 3 3 11 -3 19 -12 13 -17 13 -17 -6 -3 -19 14
-19 14 -6 -3 11 -14 16 -15 29 -5 13 10 14 10 8 1 -5 -9 1 -13 21 -15 42 -2
47 -3 61 -12 7 -4 16 -5 20 -1 4 4 1 10 -5 12 -7 3 -13 13 -13 23 0 10 -9 25
-20 33 -11 8 -17 17 -13 21 4 4 0 4 -10 0 -12 -4 -17 -1 -17 12 0 9 -3 14 -7
11 -3 -4 -12 1 -20 11 -8 9 -11 11 -8 4 6 -11 3 -11 -14 0 -12 7 -21 16 -21
20 0 5 -12 8 -26 8 -23 0 -25 2 -14 15 7 9 11 17 9 20 -3 2 -9 -3 -15 -12z"/>
<path d="M3786 3468 c3 -5 10 -6 15 -3 13 9 11 12 -6 12 -8 0 -12 -4 -9 -9z"/>
<path d="M4336 3407 c3 -10 9 -15 12 -12 3 3 0 11 -7 18 -10 9 -11 8 -5 -6z"/>
<path d="M790 3340 c-6 -11 -8 -20 -6 -20 3 0 10 9 16 20 6 11 8 20 6 20 -3 0
-10 -9 -16 -20z"/>
<path d="M1234 3316 c-3 -9 -10 -13 -15 -10 -5 3 -10 0 -10 -5 -1 -6 -2 -17
-3 -23 -1 -7 -7 -12 -13 -11 -6 1 -13 -3 -16 -10 -3 -7 3 -14 13 -14 10 -1 21
5 24 13 3 9 11 12 17 8 7 -4 9 -3 5 4 -3 6 2 17 13 24 16 11 16 15 5 26 -12
11 -15 10 -20 -2z m6 -21 c-7 -8 -17 -15 -23 -15 -6 0 -2 7 9 15 25 19 30 19
14 0z"/>
<path d="M4897 3272 c17 -13 17 -14 -4 -8 -16 5 -23 2 -28 -14 -4 -11 -10 -18
-15 -15 -5 3 -11 -4 -15 -15 -4 -11 -11 -17 -17 -14 -7 5 -9 1 -5 -9 4 -11 2
-14 -9 -10 -10 4 -12 0 -8 -11 4 -11 2 -16 -7 -14 -8 2 -13 -4 -13 -14 1 -10
-1 -17 -5 -16 -19 2 -31 -3 -26 -12 3 -5 -1 -10 -10 -10 -11 0 -15 -5 -12 -14
4 -10 0 -12 -14 -9 -10 3 -25 0 -32 -6 -8 -6 -18 -7 -22 -3 -5 4 -5 2 -2 -4 4
-7 0 -15 -9 -18 -9 -3 -12 -2 -8 5 3 6 -3 5 -14 -2 -12 -7 -19 -17 -16 -21 3
-4 -2 -5 -10 -2 -9 4 -16 1 -16 -6 0 -9 -4 -9 -17 1 -10 7 -15 10 -11 5 8 -9
-13 -36 -24 -30 -3 2 -4 -5 -1 -16 4 -15 9 -18 18 -10 10 8 16 6 25 -7 10 -16
11 -16 6 0 -5 16 9 23 37 18 5 -1 6 2 4 6 -3 5 6 13 19 20 13 6 22 8 19 4 -2
-4 2 -8 9 -8 8 0 12 8 9 21 -3 12 -1 17 4 11 11 -14 45 -16 36 -2 -4 6 0 8 11
4 9 -4 15 -3 12 2 -3 5 2 12 11 15 9 4 20 1 25 -6 6 -10 8 -10 8 -1 0 7 7 10
17 6 12 -5 14 -3 8 8 -6 11 -5 12 6 2 16 -15 33 -17 24 -3 -4 7 2 7 18 1 14
-6 28 -7 32 -3 3 3 10 0 15 -8 8 -12 10 -12 10 4 0 13 3 16 13 9 6 -6 21 -8
32 -6 11 2 26 5 33 5 16 2 15 6 -3 24 -8 9 -23 14 -32 12 -10 -1 -24 1 -30 5
-7 5 -13 4 -13 -1 0 -13 -33 -10 -42 3 -5 6 -8 6 -8 -2 0 -15 -37 -5 -44 14
-3 8 -1 11 4 8 9 -6 12 1 9 22 0 4 7 10 16 13 9 3 15 9 13 12 -2 4 6 14 17 22
11 8 20 20 20 28 1 7 5 12 11 11 5 -1 10 8 10 21 0 15 -6 22 -19 22 -18 0 -18
-1 0 -14z"/>
<path d="M3913 3258 c4 -13 1 -18 -11 -18 -15 0 -15 -2 -2 -10 9 -6 11 -10 3
-10 -7 0 -10 -6 -7 -13 3 -8 0 -26 -6 -41 -5 -15 -6 -25 -2 -22 5 3 9 -1 9 -8
0 -8 -6 -12 -13 -9 -14 5 -13 -22 1 -34 4 -4 5 -3 2 3 -3 6 0 11 8 11 11 0 12
-4 4 -13 -6 -7 -7 -19 -3 -26 6 -10 4 -11 -7 -3 -8 6 -7 3 2 -6 13 -12 15 -19
6 -28 -8 -8 -8 -11 2 -11 8 0 11 -7 8 -20 -3 -11 0 -23 5 -27 7 -4 8 -1 3 7
-6 9 -4 11 4 5 7 -4 11 -16 8 -26 -3 -11 -1 -16 5 -13 6 4 14 0 19 -7 7 -11 9
-10 9 4 0 10 4 16 8 13 10 -6 6 119 -4 135 -4 8 -3 9 4 5 7 -4 12 -2 12 3 0 6
-5 11 -11 11 -5 0 -7 5 -4 10 3 6 0 10 -7 10 -9 0 -9 3 2 10 12 8 12 10 1 10
-8 0 -11 3 -8 7 4 3 2 12 -3 18 -21 25 28 24 55 -1 14 -13 31 -24 36 -24 6 0
7 -5 3 -12 -5 -8 -2 -9 9 -5 11 4 17 1 17 -8 0 -14 12 -19 33 -16 4 0 7 -4 7
-10 0 -5 5 -7 10 -4 6 3 10 2 10 -4 0 -6 7 -8 16 -4 9 3 20 0 25 -8 7 -11 9
-10 9 4 0 11 5 16 13 12 6 -4 3 1 -8 10 -11 9 -19 18 -17 20 7 14 0 25 -15 25
-9 0 -13 3 -10 6 10 10 -34 45 -46 37 -6 -3 -7 -1 -3 5 4 8 0 12 -11 12 -15 0
-16 2 -3 10 13 8 12 10 -2 10 -10 0 -18 8 -19 18 0 14 -2 14 -9 -3 l-9 -20 0
20 c-1 11 -5 16 -9 10 -8 -11 -42 -16 -42 -6 0 4 -12 6 -27 6 -16 -1 -34 4
-42 9 -12 9 -13 7 -8 -6z"/>
<path d="M175 3240 c-3 -5 -4 -10 0 -10 3 0 1 -8 -4 -18 -7 -13 -6 -23 2 -31
9 -10 8 -11 -4 -6 -10 4 -20 1 -25 -6 -4 -8 -3 -10 4 -5 19 11 14 -5 -5 -20
-13 -10 -14 -13 -4 -14 10 0 8 -5 -6 -17 -11 -10 -18 -24 -16 -31 3 -8 -2 -10
-14 -6 -10 3 -7 -1 7 -10 14 -8 27 -10 28 -5 2 5 7 7 11 5 3 -3 18 5 31 15 23
19 23 19 3 9 -16 -7 -23 -7 -23 0 0 5 6 10 13 11 6 0 20 2 29 4 10 2 16 -2 15
-8 -1 -7 9 -12 21 -12 13 0 28 -8 33 -18 8 -14 14 -15 31 -6 11 6 18 7 15 2
-3 -4 1 -13 8 -20 11 -10 15 -10 18 0 4 9 6 9 6 0 1 -7 8 -13 17 -13 8 0 12
-5 9 -10 -8 -13 18 -8 27 5 5 6 8 3 8 -7 0 -9 4 -20 10 -23 6 -3 7 1 4 12 -4
14 -3 14 8 -2 7 -12 23 -20 36 -19 19 1 20 -1 10 -14 -11 -13 -11 -14 0 -8 7
4 20 2 29 -6 10 -7 14 -8 10 -1 -8 13 18 12 30 -2 4 -4 2 -5 -4 -1 -7 4 -13 2
-13 -3 0 -17 15 -13 41 11 17 14 19 19 7 15 -10 -4 -18 -2 -18 3 0 6 -7 10
-16 10 -9 0 -12 5 -8 12 5 8 0 9 -14 6 -12 -4 -20 -2 -16 3 3 5 -4 9 -15 9
-12 0 -21 6 -21 13 0 8 -4 7 -10 -3 -9 -13 -10 -13 -10 0 0 8 -9 21 -21 28
-12 8 -19 9 -15 4 3 -5 -1 -9 -9 -9 -8 0 -12 4 -9 9 3 4 -2 9 -10 9 -35 3 -41
5 -39 16 1 6 -7 9 -20 6 -18 -4 -19 -3 -7 7 13 9 12 10 -5 8 -11 -1 -31 5 -44
14 -13 9 -29 14 -37 11 -9 -3 -12 2 -9 17 4 19 2 20 -12 8 -9 -7 -14 -8 -10
-2 4 7 9 31 11 54 3 31 1 39 -7 31 -14 -14 -30 -15 -22 -1 3 6 4 10 1 10 -3 0
-8 -4 -11 -10z"/>
<path d="M1169 3233 c-9 -2 -21 -15 -28 -29 -6 -15 -16 -22 -23 -18 -7 4 -8 3
-4 -4 8 -14 -18 -55 -28 -45 -4 4 -4 0 -1 -9 4 -9 0 -18 -10 -21 -15 -6 -60
-93 -57 -109 1 -5 -2 -8 -8 -8 -5 0 -6 -7 -3 -17 5 -12 3 -14 -7 -8 -8 5 -11
4 -6 -3 3 -5 1 -12 -6 -14 -6 -2 -13 -15 -15 -29 -2 -13 -8 -26 -13 -27 -6 -2
-8 -8 -4 -13 3 -5 -3 -9 -13 -9 -10 0 -14 -4 -8 -8 16 -12 18 -35 2 -29 -11 4
-14 -2 -12 -24 1 -16 -1 -29 -6 -29 -5 0 -5 -7 -2 -17 4 -10 2 -14 -5 -9 -6 3
-13 2 -17 -4 -3 -5 -1 -10 6 -10 8 0 8 -4 -1 -15 -7 -8 -9 -15 -4 -15 5 0 0
-8 -11 -17 -14 -11 -15 -14 -4 -10 9 3 22 0 28 -6 7 -7 12 -7 11 -2 -5 25 1
56 9 50 6 -3 8 6 5 21 -3 19 -1 24 8 18 7 -4 10 -3 5 1 -4 5 0 17 10 27 11 13
12 18 3 18 -10 0 -10 3 0 15 7 8 9 15 4 15 -5 0 -1 5 8 11 10 5 15 16 12 24
-4 8 -1 15 5 15 6 0 8 7 4 17 -4 11 -3 14 5 9 8 -5 12 0 12 14 0 13 4 19 12
14 7 -4 8 -3 4 4 -4 7 -2 12 3 12 6 0 11 5 11 11 0 5 -4 7 -10 4 -5 -3 -10 -1
-10 4 0 6 6 11 14 11 9 0 13 9 11 25 -2 22 0 23 13 13 11 -9 13 -9 9 -1 -4 6
0 18 8 27 9 8 16 18 15 21 -1 26 2 34 14 29 9 -4 13 2 11 20 -2 19 1 23 13 19
11 -5 14 -2 9 10 -3 9 -1 19 5 23 7 4 8 3 4 -4 -5 -8 -1 -10 10 -5 11 4 13 8
6 11 -7 2 -12 11 -12 20 0 10 3 13 8 6 4 -6 13 -4 24 8 18 18 13 27 -13 21z
m-96 -153 c-5 -19 -23 -39 -23 -25 0 9 20 45 24 45 2 0 2 -9 -1 -20z m-123
-281 c0 -5 -4 -9 -8 -9 -5 0 -9 7 -9 15 0 8 4 12 9 9 4 -3 8 -9 8 -15z"/>
<path d="M4100 3059 c0 -6 -9 -9 -20 -6 -11 3 -20 1 -20 -5 0 -5 -4 -7 -9 -4
-5 3 -9 0 -8 -7 1 -30 -4 -47 -14 -47 -5 0 -7 5 -3 12 5 7 3 8 -5 3 -9 -5 -9
-11 -3 -17 7 -7 5 -19 -6 -36 -9 -15 -12 -23 -6 -20 7 5 10 -5 10 -28 -1 -25
-5 -33 -15 -29 -10 4 -8 -2 5 -16 10 -12 14 -20 8 -16 -6 3 -11 0 -11 -8 0 -8
5 -11 10 -8 6 4 8 0 4 -10 -4 -10 -1 -17 5 -17 9 0 9 -3 0 -12 -9 -9 -7 -15 6
-25 9 -8 11 -11 3 -7 -9 5 -7 -2 5 -18 13 -17 21 -22 26 -14 12 17 9 28 -4 21
-7 -4 -5 0 4 8 10 8 15 17 11 20 -3 4 0 7 8 7 12 0 11 2 -1 10 -13 9 -13 12 1
23 11 9 13 21 8 45 -4 19 -2 32 3 32 6 0 4 8 -3 17 -10 11 -10 14 -1 9 6 -4
12 -2 12 3 0 6 -8 11 -17 12 -16 0 -16 1 1 8 17 6 17 9 3 23 -15 14 -14 16 7
14 13 0 22 -4 20 -7 -2 -4 3 -10 12 -13 8 -3 13 -10 9 -15 -3 -5 4 -12 15 -16
11 -3 20 -13 20 -22 0 -13 3 -13 18 -2 9 7 14 9 10 5 -4 -5 0 -15 10 -23 9 -8
11 -11 3 -7 -10 5 -12 3 -7 -5 4 -7 15 -11 24 -9 10 2 23 -5 30 -17 12 -18 13
-18 7 -1 -6 19 -5 19 15 1 23 -21 36 -15 25 12 -5 10 -9 22 -9 26 -1 4 -8 12
-16 17 -11 7 -12 10 -2 10 8 0 0 12 -17 26 -17 14 -31 32 -31 39 0 17 -40 46
-52 39 -4 -3 -8 2 -8 10 0 10 -6 13 -15 10 -9 -4 -15 0 -15 7 0 12 -2 12 -9 0
-11 -17 -32 -5 -24 14 3 8 2 15 -1 15 -3 0 -6 -5 -6 -11z"/>
<path d="M4240 2966 c0 -2 8 -10 18 -17 15 -13 16 -12 3 4 -13 16 -21 21 -21
13z"/>
<path d="M4190 2822 c0 -6 -10 -9 -21 -7 -12 3 -19 2 -16 -2 4 -3 -1 -12 -11
-20 -9 -8 -11 -11 -3 -7 16 8 8 -9 -17 -38 -8 -10 -12 -25 -8 -35 5 -16 4 -15
-9 1 -14 19 -15 18 -11 -12 2 -18 -1 -35 -6 -38 -6 -4 -5 -10 3 -15 11 -7 11
-9 -1 -9 -13 0 -13 -1 0 -10 13 -8 12 -10 -3 -10 -16 0 -16 -2 -5 -14 8 -8 13
-29 12 -47 -2 -19 -1 -41 2 -51 5 -17 27 -19 41 -3 4 4 2 5 -4 1 -7 -4 -13 -2
-13 4 0 6 -5 8 -12 4 -6 -4 -8 -3 -4 4 3 6 15 9 25 7 15 -3 19 1 16 15 -2 10
2 21 9 23 7 3 13 19 14 37 0 17 7 39 14 48 11 14 11 15 -5 9 -17 -6 -17 -5 -2
15 17 25 20 42 5 33 -16 -10 -12 0 10 25 19 22 20 22 20 3 0 -12 7 -24 16 -27
8 -3 12 -10 9 -16 -4 -6 1 -7 11 -3 12 4 15 3 10 -5 -4 -7 -2 -12 3 -12 6 0
11 -6 11 -14 0 -8 7 -17 16 -20 8 -3 12 -11 8 -17 -4 -8 -3 -9 4 -5 7 4 12 2
12 -4 0 -6 3 -9 8 -7 9 6 52 -39 45 -47 -4 -3 -1 -6 5 -6 17 0 27 61 11 71 -8
5 -10 9 -6 9 4 0 2 10 -5 23 -7 12 -11 25 -10 30 1 4 -3 7 -9 7 -6 0 -8 7 -5
17 4 10 4 14 0 11 -7 -8 -54 37 -54 52 0 6 -4 9 -9 6 -5 -4 -11 -1 -13 4 -2 6
-11 12 -20 14 -9 1 -26 10 -38 21 -11 10 -20 13 -20 7z"/>
<path d="M4230 2809 c0 -5 5 -7 10 -4 6 3 10 8 10 11 0 2 -4 4 -10 4 -5 0 -10
-5 -10 -11z"/>
<path d="M882 2671 c-8 -5 -12 -21 -11 -38 2 -18 -3 -36 -12 -46 -11 -11 -15
-31 -13 -66 1 -28 -3 -54 -8 -58 -6 -3 -8 -2 -5 3 3 6 1 16 -4 24 -6 10 -7 1
-4 -27 4 -31 2 -43 -7 -43 -9 0 -8 -3 2 -10 13 -9 13 -10 0 -10 -12 0 -12 -2
-1 -9 10 -6 11 -13 2 -29 -12 -23 1 -39 16 -19 9 11 15 59 14 110 0 9 3 16 7
13 4 -2 8 12 9 32 3 46 6 64 16 80 5 6 5 12 1 12 -3 0 0 8 7 17 10 11 10 14 2
9 -7 -4 -13 -2 -13 3 0 6 4 11 9 11 5 0 9 11 9 25 0 14 -1 25 -2 25 0 0 -7 -4
-14 -9z m-11 -94 c-6 -8 -8 -17 -4 -20 3 -4 1 -7 -5 -7 -15 0 -15 13 0 28 16
16 23 15 9 -1z"/>
<path d="M4233 2567 c1 -7 -4 -11 -12 -9 -8 2 -11 -3 -8 -13 4 -8 2 -15 -4
-15 -6 0 -7 -4 -4 -10 4 -6 -1 -7 -11 -3 -12 4 -15 3 -10 -5 4 -7 2 -12 -3
-12 -6 0 -10 -6 -8 -12 1 -7 -4 -12 -11 -10 -8 1 -11 -2 -7 -8 3 -5 2 -10 -3
-10 -5 0 -8 -12 -8 -27 1 -16 -3 -34 -8 -40 -5 -8 -4 -13 3 -13 8 0 9 -5 3
-16 -5 -9 -7 -26 -5 -38 4 -18 3 -19 -7 -6 -10 12 -11 12 -4 -5 4 -11 7 -27 8
-36 0 -17 19 -19 33 -5 8 8 9 13 12 44 1 15 3 15 11 2 8 -13 10 -12 10 4 0 10
8 25 18 33 16 14 16 14 -2 8 -19 -6 -19 -5 -3 13 9 10 17 24 17 31 0 7 5 9 13
5 8 -5 7 -2 -2 10 -10 12 -11 20 -3 28 6 6 8 18 5 27 -4 14 -3 14 6 1 9 -13
15 -8 13 11 -1 3 5 6 13 6 8 0 14 -3 13 -6 0 -3 1 -8 2 -11 1 -3 3 -12 5 -20
7 -35 25 -70 36 -70 6 0 8 -7 5 -16 -3 -8 -2 -12 4 -9 6 3 11 1 11 -4 1 -6 2
-17 3 -23 1 -7 10 -12 20 -10 11 2 15 -1 11 -7 -3 -6 2 -11 12 -11 15 0 16 -2
3 -10 -12 -8 -9 -10 11 -10 23 0 26 3 21 28 -2 15 -10 33 -16 41 -9 12 -8 13
2 7 12 -7 12 -4 1 15 -7 13 -12 32 -10 42 1 9 -1 17 -6 16 -20 -3 -27 2 -13
11 10 6 11 10 3 10 -7 0 -13 5 -13 11 0 5 5 7 12 3 7 -4 8 -3 4 5 -4 6 -12 9
-17 6 -5 -4 -9 -1 -9 4 0 6 -6 10 -12 9 -7 -2 -12 2 -11 8 1 6 -16 18 -38 28
-21 10 -39 23 -39 30 0 6 -9 12 -20 13 -11 1 -19 -4 -17 -10z m-63 -281 c0 -3
-4 -8 -10 -11 -5 -3 -10 -1 -10 4 0 6 5 11 10 11 6 0 10 -2 10 -4z"/>
<path d="M835 2330 c-4 -6 -11 -8 -16 -5 -5 4 -9 1 -9 -4 0 -6 2 -11 4 -11 2
0 11 -2 18 -5 9 -4 14 2 15 15 2 22 -2 26 -12 10z"/>
<path d="M810 2281 c0 -11 -5 -23 -11 -26 -7 -5 -4 -14 7 -26 21 -24 42 -10
39 26 -5 43 -35 66 -35 26z m20 -25 c-14 -14 -12 -29 2 -20 7 4 8 3 4 -5 -6
-9 -11 -9 -23 0 -13 11 -13 14 -1 23 8 6 13 18 11 26 -4 13 -3 13 6 0 6 -9 7
-18 1 -24z"/>
<path d="M800 2204 c0 -2 9 -8 19 -13 14 -8 20 -7 24 3 4 9 -3 14 -19 14 -13
0 -24 -2 -24 -4z"/>
<path d="M4300 2164 c0 -8 -4 -13 -9 -9 -5 3 -13 0 -17 -6 -4 -8 -3 -9 4 -5 7
4 12 3 12 -3 0 -5 -3 -11 -7 -14 -5 -2 -3 -2 4 -1 6 2 13 -2 16 -9 2 -6 4 5 5
26 1 20 -1 37 -3 37 -3 0 -5 -7 -5 -16z"/>
<path d="M4269 2101 c9 -6 10 -11 2 -15 -7 -5 -8 -13 -1 -25 6 -12 6 -21 -1
-28 -6 -6 -4 -10 6 -10 9 0 15 7 14 16 -3 29 1 42 9 37 5 -3 9 1 9 9 0 8 -4
12 -9 9 -4 -3 -8 0 -8 5 0 6 -8 11 -17 11 -14 0 -15 -2 -4 -9z"/>
<path d="M950 2090 c-1 -3 -3 -14 -5 -25 -2 -11 -11 -25 -20 -31 -12 -9 -13
-13 -3 -17 10 -4 10 -6 1 -6 -7 -1 -13 -8 -13 -17 0 -8 -4 -12 -10 -9 -6 4
-10 -5 -10 -19 0 -14 -6 -26 -12 -26 -9 0 -8 -4 2 -10 8 -5 10 -10 4 -10 -10
0 -14 -12 -15 -52 0 -20 -19 -25 -19 -6 0 6 -3 9 -6 5 -12 -12 -33 17 -22 31
8 9 6 12 -7 12 -11 0 -15 5 -11 15 3 8 1 15 -4 15 -6 0 -10 7 -10 16 0 8 -4
12 -10 9 -5 -3 -10 1 -10 9 0 9 -7 16 -15 16 -9 0 -12 6 -8 17 4 9 2 14 -3 11
-8 -4 -44 25 -44 37 0 3 -2 5 -5 5 -28 0 -29 -1 -16 -9 12 -8 12 -12 2 -25
-10 -12 -10 -16 -2 -16 7 0 10 -4 6 -9 -3 -5 -1 -13 5 -16 6 -4 10 -14 9 -23
-3 -31 1 -43 11 -37 6 3 7 -1 4 -9 -4 -10 -1 -16 7 -16 12 0 12 -2 0 -9 -11
-7 -9 -10 7 -16 12 -3 21 -9 19 -13 -3 -13 50 -58 63 -54 7 3 10 0 6 -6 -3 -5
2 -13 12 -18 22 -10 52 -13 49 -5 -1 4 14 23 34 43 21 20 34 40 30 44 -3 4 3
4 13 0 16 -5 17 -4 6 9 -7 8 -8 15 -3 15 5 0 10 21 11 48 1 26 3 61 5 79 2 18
-3 43 -10 55 -7 13 -13 21 -13 18z m-240 -70 c0 -5 -5 -10 -11 -10 -5 0 -7 5
-4 10 3 6 8 10 11 10 2 0 4 -4 4 -10z"/>
<path d="M4265 1986 c2 -14 6 -30 10 -35 4 -7 -1 -8 -12 -4 -15 5 -16 4 -7 -8
16 -20 14 -51 -3 -45 -8 3 -11 1 -8 -5 4 -5 1 -16 -5 -24 -8 -10 -9 -15 -2
-15 6 0 10 -9 9 -20 -1 -11 -6 -19 -12 -17 -5 3 -11 -7 -12 -22 -1 -14 -4 -44
-6 -66 -2 -23 1 -43 7 -47 6 -5 2 -8 -11 -8 -12 0 -25 -5 -29 -12 -4 -7 -3 -8
4 -4 7 4 12 2 12 -3 0 -6 -4 -11 -10 -11 -5 0 -10 -5 -10 -11 0 -5 6 -7 13 -3
6 4 4 -2 -5 -13 -20 -22 -24 -68 -6 -79 6 -4 8 -3 4 4 -3 6 -2 13 3 17 6 3 8
12 5 19 -3 8 -1 17 5 21 6 3 11 15 11 26 0 10 6 19 13 19 9 0 8 3 -2 9 -11 7
-9 10 9 16 12 4 18 10 13 14 -13 9 -11 54 4 69 7 8 11 17 8 22 -3 5 1 11 7 13
10 4 9 6 -1 6 -11 1 -11 4 -1 16 7 9 10 18 7 22 -4 3 -2 13 5 20 15 19 18 53
4 53 -7 0 -8 3 -1 8 16 11 16 102 0 102 -7 0 -11 -10 -10 -24z m6 -129 c-13
-13 -26 -3 -16 12 3 6 11 8 17 5 6 -4 6 -10 -1 -17z m-21 -91 c0 -2 -7 -9 -15
-16 -13 -11 -14 -10 -9 4 5 14 24 23 24 12z"/>
<path d="M992 1856 c-12 -6 -20 -17 -17 -23 2 -7 0 -13 -5 -13 -5 0 -7 -9 -5
-20 2 -13 -2 -20 -11 -20 -9 0 -12 5 -8 12 4 7 3 8 -5 4 -9 -6 -9 -11 0 -22 7
-9 8 -18 2 -26 -6 -7 -10 -31 -9 -53 1 -24 -5 -45 -14 -53 -13 -12 -12 -13 5
-8 19 6 19 5 3 -7 -10 -8 -15 -16 -12 -19 3 -4 1 -9 -4 -12 -5 -3 -18 12 -28
33 -10 22 -22 37 -25 35 -4 -2 -10 3 -13 12 -4 10 -2 13 7 8 8 -5 8 -2 -2 9
-7 9 -17 14 -22 11 -5 -3 -13 5 -18 18 -6 13 -10 19 -10 14 -1 -4 -9 1 -18 13
-10 12 -31 24 -48 27 -16 2 -25 1 -20 -3 6 -5 11 -17 13 -28 5 -35 24 -75 36
-75 6 0 4 -5 -4 -10 -13 -8 -12 -10 4 -10 13 0 16 -5 12 -16 -5 -12 -2 -15 9
-10 9 3 13 2 10 -4 -3 -6 -1 -10 6 -10 7 0 10 -3 6 -6 -8 -8 25 -44 40 -44 8
0 10 -7 6 -17 -6 -16 -5 -16 10 -4 13 10 17 10 17 1 0 -10 3 -10 14 -1 11 9
16 9 22 0 5 -8 3 -9 -6 -4 -9 6 -11 4 -6 -4 6 -9 13 -8 29 6 11 10 18 13 14 7
-3 -6 0 -11 8 -11 8 0 12 4 10 8 -9 13 7 39 19 32 6 -3 6 0 -2 8 -10 11 -8 17
10 32 13 10 16 16 8 12 -12 -5 -12 -4 1 7 9 7 15 21 13 31 -1 9 1 17 4 17 4 0
8 13 8 30 1 16 -2 28 -6 25 -3 -2 -7 2 -7 10 0 8 4 12 9 9 4 -3 8 0 8 5 0 6
-4 11 -8 11 -4 0 -9 11 -10 26 -1 17 2 23 11 18 6 -4 4 2 -6 13 -14 16 -15 22
-5 26 7 2 11 6 8 9 -3 2 -15 -1 -28 -6z"/>
<path d="M925 1829 c-4 -6 -5 -12 -2 -15 2 -3 7 2 10 11 7 17 1 20 -8 4z"/>
<path d="M1040 1614 c-14 -16 -13 -17 4 -11 16 7 17 5 5 -9 -18 -22 -23 -57
-7 -49 7 4 5 0 -4 -7 -9 -8 -15 -23 -14 -34 2 -10 -1 -25 -7 -32 -8 -10 -7
-16 4 -23 12 -7 12 -9 -1 -9 -13 0 -13 -2 -1 -9 13 -8 13 -12 1 -26 -12 -15
-12 -16 2 -13 9 1 17 -1 16 -7 0 -5 -5 -9 -10 -7 -6 2 -8 -5 -4 -15 5 -16 5
-16 -6 -2 -7 9 -19 14 -26 11 -7 -2 -12 0 -11 5 4 21 -2 33 -17 33 -10 0 -14
6 -11 15 4 8 1 17 -5 21 -7 4 -8 3 -4 -4 14 -23 -14 -11 -29 12 -9 13 -26 27
-38 30 -12 3 -33 20 -46 38 -13 18 -21 25 -18 16 5 -13 1 -18 -11 -18 -10 0
-13 -3 -7 -8 18 -13 42 -47 27 -38 -10 6 -10 0 2 -22 9 -17 23 -35 32 -40 9
-5 15 -12 15 -15 -3 -21 1 -27 15 -27 8 0 12 -4 9 -10 -6 -9 8 -14 28 -11 5 1
6 -3 2 -9 -3 -5 1 -10 9 -10 9 0 16 -4 16 -9 0 -4 10 -8 23 -7 13 1 21 -4 20
-11 -4 -16 9 -17 25 -1 9 9 12 9 12 0 0 -9 5 -9 20 0 11 7 20 16 20 21 0 4 -5
5 -12 1 -7 -4 -2 7 11 25 13 17 20 39 17 47 -3 8 -2 13 3 10 5 -3 11 1 15 9 3
8 1 17 -5 21 -6 4 -4 13 6 24 12 14 13 20 4 26 -8 4 -10 3 -5 -4 4 -7 2 -12
-3 -12 -14 0 -14 17 0 26 8 4 7 9 -2 15 -11 7 -11 9 -1 9 7 0 10 5 7 10 -4 6
-10 8 -14 6 -4 -3 -5 9 -3 27 3 18 1 29 -4 24 -4 -4 -13 4 -19 19 -10 25 -11
26 -25 8z"/>
<path d="M4146 1527 c-3 -12 -6 -24 -6 -27 -1 -3 -8 -9 -16 -13 -11 -6 -12
-13 -3 -29 10 -19 12 -19 30 11 20 34 25 66 10 75 -5 3 -11 -4 -15 -17z m4
-42 c-7 -8 -16 -15 -21 -15 -5 0 -1 8 9 18 20 22 31 19 12 -3z"/>
<path d="M4105 1440 c3 -5 1 -10 -6 -10 -7 0 -9 -3 -6 -7 4 -3 1 -13 -6 -21
-6 -8 -12 -27 -13 -41 0 -17 -6 -26 -15 -25 -9 1 -16 -5 -16 -12 0 -7 4 -11 9
-8 4 3 8 0 8 -5 0 -6 -6 -11 -14 -11 -8 0 -18 -9 -21 -20 -4 -11 -11 -18 -16
-14 -5 3 -9 2 -8 -3 1 -4 0 -11 -1 -15 -1 -5 -3 -14 -4 -20 -1 -7 -8 -12 -15
-10 -7 1 -10 -2 -7 -7 4 -5 2 -12 -4 -16 -6 -4 -7 -11 -4 -17 5 -8 1 -9 -10
-5 -10 4 -15 3 -11 -3 3 -6 1 -10 -4 -10 -6 0 -11 -6 -11 -14 0 -8 -7 -16 -15
-20 -8 -3 -14 -11 -13 -18 2 -7 -3 -12 -9 -11 -7 2 -12 0 -11 -5 5 -16 -23
-52 -35 -45 -7 4 -5 -2 3 -12 8 -10 10 -16 3 -12 -6 4 -14 3 -18 -3 -4 -6 -11
-8 -16 -4 -5 3 -8 0 -7 -8 2 -7 -3 -12 -10 -10 -10 2 -10 -2 -2 -18 6 -11 13
-20 16 -20 3 0 3 4 0 9 -3 5 1 12 10 15 8 3 12 10 9 16 -3 5 1 10 10 10 8 0
20 10 25 23 5 12 9 18 10 12 1 -5 5 1 9 15 5 17 13 24 27 22 14 -2 16 -1 5 6
-11 8 -9 11 8 17 16 5 20 12 16 26 -5 15 -3 18 12 12 10 -3 15 -3 11 1 -8 10
14 36 25 29 4 -2 7 -1 6 4 -1 4 0 11 1 16 1 4 3 13 4 20 1 6 8 11 15 9 7 -1
10 2 7 7 -4 5 2 14 11 20 14 8 14 10 3 11 -10 0 -7 5 8 16 12 8 22 24 22 35 0
10 3 19 8 19 14 0 30 48 19 59 -7 7 -2 8 14 4 22 -6 23 -5 9 12 -14 17 -13 18
4 11 19 -7 19 -6 1 14 -19 21 -30 27 -20 10z m-10 -59 c3 -5 2 -12 -3 -15 -5
-3 -9 1 -9 9 0 17 3 19 12 6z m-65 -125 c0 -2 -8 -10 -17 -17 -16 -13 -17 -12
-4 4 13 16 21 21 21 13z m-30 -50 c0 -2 -8 -10 -17 -17 -16 -13 -17 -12 -4 4
13 16 21 21 21 13z"/>
<path d="M1136 1393 c-3 -8 -1 -11 4 -8 12 8 12 3 0 -29 -6 -18 -6 -26 1 -26
6 0 7 -6 2 -12 -11 -18 -10 -42 2 -50 6 -5 4 -8 -5 -8 -12 0 -13 -2 -1 -9 8
-6 10 -14 5 -22 -13 -21 -13 -39 -1 -36 7 1 11 -4 10 -10 -2 -7 2 -13 7 -13 6
0 10 -4 10 -10 0 -5 -15 -10 -32 -10 -25 0 -29 3 -18 10 12 8 11 10 -7 10 -13
0 -23 5 -23 10 0 6 -7 10 -16 10 -10 0 -14 6 -11 14 4 11 1 13 -10 9 -11 -4
-14 -2 -9 5 4 7 -1 10 -15 7 -16 -3 -18 -1 -10 9 9 10 7 13 -6 13 -36 0 -44 3
-37 15 5 7 3 8 -6 3 -9 -5 -21 2 -37 21 -15 18 -21 22 -17 10 6 -15 4 -17 -7
-11 -12 8 -12 6 -1 -8 8 -9 11 -20 8 -25 -3 -6 2 -9 11 -8 10 0 17 -7 18 -20
2 -24 29 -57 39 -47 3 4 6 -1 6 -10 0 -9 7 -17 16 -17 10 0 14 -5 10 -16 -3
-9 -2 -12 5 -9 5 4 16 1 24 -5 12 -10 15 -10 15 1 0 12 2 12 9 0 5 -8 16 -11
24 -8 11 4 14 1 11 -8 -5 -11 0 -12 25 -5 22 6 29 6 25 -2 -5 -7 -2 -9 8 -5 9
3 21 0 28 -6 10 -9 11 -9 6 1 -4 6 -2 12 4 12 6 0 8 5 5 10 -3 6 0 10 7 10 10
0 9 3 -2 10 -12 8 -12 10 3 16 9 3 14 10 11 15 -3 5 -10 7 -15 4 -15 -10 -10
2 8 16 14 12 16 12 8 0 -5 -8 -4 -12 1 -8 15 8 9 57 -7 68 -11 7 -10 9 4 9 17
0 17 2 3 22 -9 12 -16 30 -16 39 0 10 -6 20 -12 22 -10 4 -10 6 0 6 10 1 10 5
-2 17 -9 8 -13 21 -9 27 4 6 0 8 -10 4 -10 -4 -14 -2 -11 7 3 7 -2 13 -10 13
-8 0 -18 -7 -20 -14z"/>
<path d="M1257 1199 c-3 -10 -1 -22 5 -25 5 -3 9 -18 8 -32 -3 -41 -1 -54 8
-48 5 3 8 -5 7 -17 -1 -12 5 -28 12 -36 8 -8 12 -23 10 -33 -4 -13 -1 -18 7
-15 15 6 20 -40 4 -49 -6 -4 -8 -3 -5 3 4 6 0 14 -9 17 -8 3 -12 2 -9 -3 3 -5
0 -13 -6 -17 -7 -4 -9 -3 -6 3 8 12 -17 36 -26 26 -4 -3 -7 1 -7 9 0 11 -8 15
-24 14 -17 -2 -23 1 -19 11 4 9 0 11 -13 6 -11 -4 -15 -3 -11 4 4 7 0 10 -10
9 -10 -2 -21 1 -25 7 -8 13 -77 17 -84 6 -3 -5 0 -9 6 -9 6 0 8 -5 4 -12 -4
-7 -3 -8 4 -4 7 4 12 1 12 -6 0 -7 9 -19 20 -26 12 -7 18 -18 14 -24 -5 -7 0
-9 14 -6 15 4 19 2 15 -8 -3 -9 2 -14 16 -14 12 0 21 -5 21 -11 0 -8 5 -7 15
1 13 11 14 10 9 -6 -4 -10 -4 -16 1 -12 4 4 14 3 22 -3 9 -9 13 -8 13 0 0 8 5
9 19 2 10 -6 21 -8 24 -4 4 3 14 0 24 -8 15 -12 16 -12 10 5 -6 15 -5 17 6 8
18 -16 53 9 44 31 -3 9 3 27 14 40 10 14 19 29 19 34 0 4 -5 0 -11 -9 -5 -10
-15 -18 -20 -18 -6 0 -7 5 -3 12 12 19 14 58 3 58 -6 0 -7 9 -4 20 4 13 1 22
-9 26 -8 3 -12 12 -9 20 3 8 -1 14 -11 14 -9 0 -16 5 -16 11 0 5 5 7 12 3 7
-4 8 -3 4 4 -4 7 -15 12 -24 12 -15 0 -15 2 -2 10 13 8 11 11 -7 16 -13 4 -23
10 -23 14 0 18 -28 17 -33 -1z m-123 -168 c3 -4 -4 -7 -14 -6 -27 2 -33 10
-10 12 11 1 22 -2 24 -6z"/>
<path d="M1440 1041 c10 -7 11 -11 3 -11 -7 0 -13 -7 -13 -15 0 -8 6 -15 13
-15 8 0 7 -4 -3 -10 -10 -6 -11 -10 -2 -10 7 0 12 -13 12 -29 0 -17 5 -33 10
-36 6 -3 10 -15 10 -26 0 -10 5 -19 10 -19 6 0 9 -3 9 -7 -3 -21 2 -33 12 -27
7 4 7 -1 -1 -16 -8 -15 -8 -20 -1 -16 6 4 11 2 11 -4 0 -6 6 -8 13 -4 6 4 8 3
4 -1 -4 -5 -21 -10 -37 -11 -21 -2 -27 1 -23 11 3 10 -1 13 -16 10 -12 -2 -21
0 -21 6 0 5 -5 9 -11 9 -5 0 -7 -4 -4 -10 3 -6 -1 -7 -9 -4 -9 3 -16 14 -17
23 0 12 -2 12 -9 -4 -5 -11 -9 -14 -9 -7 -1 6 -14 12 -29 12 -16 0 -32 3 -36
7 -13 13 -36 11 -36 -3 0 -8 -4 -14 -10 -14 -5 0 -7 7 -4 15 4 8 4 15 1 15 -3
0 -8 -7 -11 -15 -4 -11 3 -19 19 -25 14 -5 25 -13 24 -17 -3 -21 2 -24 18 -12
15 12 16 12 9 -6 -4 -11 -4 -16 0 -12 4 4 17 -1 28 -10 20 -17 20 -17 7 2 -8
11 -2 8 13 -8 15 -15 31 -25 37 -22 5 4 9 1 9 -4 0 -6 9 -11 21 -11 13 0 18 4
13 13 -4 6 3 3 15 -7 22 -20 22 -20 15 0 -4 10 -4 16 1 12 4 -4 15 -2 23 5 10
8 13 8 9 1 -4 -7 0 -15 9 -18 8 -3 13 -2 10 2 -3 4 4 14 16 21 15 9 18 10 13
0 -6 -8 -4 -10 4 -4 7 4 11 16 8 26 -3 11 -1 17 3 14 5 -3 7 7 5 22 -2 16 -4
38 -4 51 -1 16 -5 21 -13 16 -10 -6 -10 -5 0 8 10 12 9 18 -3 28 -9 7 -14 19
-11 27 3 8 2 12 -3 9 -4 -3 -13 6 -20 20 -6 14 -15 23 -20 19 -5 -3 -11 5 -13
17 -2 15 -9 22 -21 22 -11 -1 -16 4 -15 14 2 8 -4 17 -12 19 -13 4 -13 3 0 -6z"/>
<path d="M3780 964 c0 -8 -4 -13 -9 -9 -6 3 -15 -4 -21 -15 -6 -11 -15 -18
-20 -15 -6 3 -7 -1 -4 -9 3 -9 2 -16 -4 -16 -5 0 -13 -7 -16 -16 -4 -11 2 -10
25 7 17 12 33 28 36 35 3 8 10 11 16 7 6 -4 7 -1 2 7 -6 10 -4 12 9 7 14 -6
15 -3 6 13 -13 24 -20 26 -20 4z"/>
<path d="M1270 878 c0 -4 4 -8 9 -8 6 0 12 4 15 8 3 5 -1 9 -9 9 -8 0 -15 -4
-15 -9z"/>
<path d="M1610 880 c0 -6 -5 -8 -12 -4 -7 4 -8 3 -4 -4 4 -6 13 -9 20 -6 9 4
13 -2 11 -20 -2 -14 1 -28 6 -32 5 -3 7 -10 4 -15 -4 -5 -2 -9 3 -9 5 0 9 -6
10 -12 3 -42 19 -71 33 -63 5 4 9 1 9 -6 0 -6 10 -21 23 -32 16 -14 17 -18 5
-14 -10 3 -20 2 -24 -4 -4 -6 -12 -5 -22 3 -15 12 -16 11 -3 -5 8 -9 11 -20 7
-24 -3 -3 -6 -1 -6 5 0 7 -7 12 -15 12 -8 0 -15 5 -15 11 0 6 -5 7 -12 2 -18
-11 -38 -13 -38 -3 0 4 -14 7 -31 6 -17 -1 -41 3 -55 10 -29 15 -34 9 -23 -32
7 -26 13 -31 38 -29 21 1 28 -2 24 -12 -4 -11 19 -17 54 -12 3 0 10 -6 15 -15
6 -11 14 -13 32 -6 16 6 27 5 35 -3 9 -9 11 -7 5 8 -4 11 -4 17 1 13 4 -4 16
-3 26 3 13 6 19 6 19 -1 0 -5 5 -10 10 -10 5 0 9 6 7 13 -1 6 6 11 16 11 14
-2 17 4 13 27 -2 16 0 27 5 23 5 -3 9 0 9 5 0 6 -7 11 -15 11 -8 0 -15 5 -15
11 0 5 5 7 11 3 8 -5 8 -1 0 14 -14 27 -14 35 2 27 6 -4 1 2 -12 13 -13 10
-21 24 -17 30 3 6 -3 13 -14 17 -11 3 -19 12 -17 18 1 7 -4 11 -10 10 -8 -2
-13 7 -13 20 0 18 -2 19 -10 7 -8 -12 -10 -10 -10 9 0 13 -3 21 -7 18 -3 -4
-17 0 -30 8 -14 9 -23 11 -23 5z m-112 -225 c-3 -3 -9 2 -12 12 -6 14 -5 15 5
6 7 -7 10 -15 7 -18z m212 -11 c0 -8 -5 -12 -10 -9 -6 4 -8 11 -5 16 9 14 15
11 15 -7z m-60 -58 c0 -2 -7 -7 -16 -10 -8 -3 -12 -2 -9 4 6 10 25 14 25 6z"/>
<path d="M3680 870 c0 -5 -6 -9 -12 -7 -8 1 -12 -6 -10 -17 3 -17 2 -18 -12
-7 -9 8 -17 11 -17 7 -1 -3 -2 -10 -3 -15 -2 -16 -51 -48 -66 -44 -13 4 -13 3
0 -6 13 -9 13 -11 -2 -11 -10 0 -18 -4 -18 -10 0 -5 -4 -10 -10 -10 -5 0 -19
-9 -29 -19 -19 -19 -19 -20 -1 -18 10 1 16 5 13 11 -4 5 1 7 11 3 11 -5 15 -3
10 5 -5 7 -2 9 9 5 11 -4 14 -2 10 9 -4 10 -1 14 8 12 8 -2 15 1 16 6 2 14 32
28 43 21 6 -4 10 -3 9 2 -3 17 1 33 9 31 16 -3 42 15 35 25 -4 6 0 8 9 4 12
-4 14 -1 11 14 -6 20 -13 26 -13 9z"/>
<path d="M1819 755 c0 -5 -2 -18 -4 -28 -2 -10 5 -23 16 -30 10 -6 19 -18 19
-25 0 -7 4 -11 9 -8 5 3 11 -8 15 -25 3 -17 10 -28 16 -24 6 3 14 -4 19 -17 6
-13 10 -19 10 -14 1 5 10 -1 21 -14 24 -27 26 -38 5 -20 -8 7 -15 8 -15 2 0
-5 -9 -12 -20 -15 -11 -3 -20 -1 -20 4 0 6 -8 5 -20 -1 -15 -8 -20 -8 -20 1 0
9 -3 9 -14 0 -10 -9 -16 -9 -21 -1 -5 8 -11 7 -22 -1 -9 -8 -17 -9 -21 -3 -10
13 -35 17 -27 4 3 -5 -3 -10 -13 -10 -11 0 -23 -7 -26 -16 -8 -20 -8 -24 2
-23 24 4 42 -3 42 -16 0 -8 5 -15 10 -15 6 0 10 5 10 11 0 8 4 8 13 1 6 -5 24
-8 40 -6 19 2 27 -2 27 -14 0 -14 1 -14 13 1 13 19 61 13 51 -7 -3 -6 0 -4 8
5 7 9 24 21 38 28 24 11 24 11 6 -3 -11 -9 -15 -16 -8 -16 6 0 18 10 27 23 8
12 19 22 23 21 4 0 13 6 20 13 9 8 10 13 2 13 -6 0 -8 5 -4 13 5 8 2 7 -9 -2
-16 -13 -17 -12 -7 13 9 24 7 29 -9 33 -19 5 -22 18 -8 40 5 9 3 11 -6 7 -8
-3 -18 0 -23 7 -4 8 -3 10 4 5 8 -5 10 -2 6 8 -3 9 -9 15 -12 14 -21 -2 -32 4
-32 18 0 10 -5 14 -16 10 -8 -3 -13 -2 -10 3 3 5 -1 12 -10 15 -8 3 -13 10
-10 15 3 5 -3 7 -14 4 -15 -4 -20 0 -21 13 0 13 -2 14 -6 5 -5 -11 -7 -11 -14
0 -5 8 -9 10 -10 4z m31 -41 c0 -8 -19 -13 -24 -6 -3 5 1 9 9 9 8 0 15 -2 15
-3z"/>
<path d="M3454 705 c-4 -8 -10 -12 -15 -9 -5 3 -8 0 -7 -8 2 -7 -3 -12 -9 -10
-7 1 -13 -3 -13 -9 0 -5 -4 -7 -10 -4 -5 3 -10 1 -10 -4 0 -6 -7 -11 -15 -11
-8 0 -15 -4 -15 -10 0 -13 21 -9 39 8 7 7 20 11 27 8 8 -3 13 0 11 6 -1 7 3
12 8 13 6 0 19 6 30 14 18 11 18 12 1 7 -13 -5 -17 -2 -12 9 3 8 3 15 0 15 -2
0 -7 -7 -10 -15z"/>
<path d="M2046 662 c-4 -7 -12 -10 -17 -7 -5 3 -6 -1 -3 -9 3 -9 13 -16 21
-16 8 0 11 -4 8 -10 -3 -5 -1 -10 5 -10 6 0 8 -4 5 -10 -3 -5 1 -10 10 -10 11
0 15 -5 11 -16 -3 -8 -2 -13 3 -10 5 3 12 -1 15 -10 3 -8 9 -13 13 -11 10 6
34 -19 26 -27 -3 -3 4 -4 15 -1 16 3 19 0 15 -13 -3 -9 -3 -14 2 -10 12 12 35
-11 28 -29 -5 -12 -7 -12 -14 -1 -6 9 -11 10 -16 2 -5 -6 -17 -14 -27 -17 -16
-6 -17 -5 -6 8 8 9 8 15 2 15 -6 0 -14 -5 -17 -11 -4 -6 -13 -8 -21 -5 -8 3
-14 1 -14 -4 0 -6 -5 -10 -11 -10 -5 0 -7 6 -3 13 6 9 4 9 -7 2 -8 -6 -23 -10
-34 -10 -11 0 -26 -5 -34 -13 -10 -10 -16 -10 -28 -1 -11 10 -14 10 -11 -2 2
-8 -5 -14 -14 -14 -9 0 -20 -4 -25 -9 -4 -5 -3 -6 5 -2 7 4 15 1 18 -9 6 -14
9 -14 33 1 20 14 23 14 14 2 -17 -19 -4 -31 15 -15 13 10 15 9 9 -7 -7 -18 -6
-18 19 -1 15 9 24 12 20 7 -3 -6 -2 -13 4 -17 5 -3 10 -2 10 2 0 5 16 7 36 5
29 -4 35 -2 28 9 -6 11 -5 12 7 2 12 -10 20 -9 39 4 15 10 20 12 15 3 -6 -9
-4 -11 4 -6 7 5 10 14 8 21 -4 8 3 12 16 11 13 -1 22 5 22 14 1 8 6 14 12 13
7 -2 10 6 7 20 -3 12 -6 28 -6 35 -1 6 -7 12 -14 12 -6 0 -15 7 -18 16 -4 10
-2 13 7 8 8 -6 8 -3 -1 9 -8 9 -10 22 -6 29 4 7 4 10 -1 6 -4 -4 -16 2 -26 13
-10 12 -30 22 -44 22 -13 0 -22 3 -20 8 3 4 -4 13 -16 19 -17 10 -20 9 -14 -2
3 -7 0 -5 -9 6 -8 10 -19 15 -24 12 -6 -3 -12 -1 -14 6 -3 9 -6 9 -12 0z"/>
<path d="M3330 639 c0 -6 -7 -8 -16 -5 -8 3 -12 2 -9 -4 3 -6 1 -10 -5 -10 -6
0 -8 -5 -4 -11 4 -7 9 -7 13 -1 3 5 14 8 23 7 11 -2 16 3 15 16 -1 20 -17 27
-17 8z"/>
<path d="M2274 602 c-5 -18 -9 -20 -15 -10 -7 10 -9 9 -9 -4 0 -12 8 -18 21
-18 18 0 19 -3 9 -15 -10 -12 -8 -14 9 -10 16 3 21 -1 21 -16 0 -13 7 -19 21
-19 11 0 18 -4 15 -9 -4 -5 2 -8 11 -6 10 1 26 -6 36 -17 10 -10 22 -16 28
-13 5 4 9 1 9 -5 0 -6 5 -8 13 -4 9 6 9 4 -1 -8 -7 -9 -9 -18 -5 -20 4 -3 3
-3 -4 -2 -7 2 -15 -1 -18 -5 -3 -5 -14 -7 -24 -4 -10 3 -22 -1 -26 -8 -6 -8
-4 -10 5 -4 9 5 11 4 6 -4 -6 -9 -11 -9 -21 -1 -10 8 -19 8 -34 1 -12 -6 -30
-16 -42 -22 -17 -8 -20 -8 -14 3 3 7 -3 2 -14 -11 -13 -14 -21 -18 -21 -10 0
11 -2 11 -10 -1 -13 -20 -13 -43 0 -35 6 3 10 0 10 -7 0 -9 3 -9 10 2 8 12 10
12 10 1 0 -11 3 -11 17 0 15 12 16 12 10 -5 -6 -16 -5 -17 8 -6 8 7 15 9 15 5
0 -4 7 -2 15 5 12 10 15 10 15 -1 0 -9 3 -10 8 -3 4 6 17 10 30 9 14 -1 21 3
18 11 -3 7 2 10 13 7 10 -2 25 3 34 11 8 9 20 16 25 16 5 0 16 8 23 17 12 15
12 16 -1 8 -8 -4 -12 -5 -8 0 4 4 18 13 30 19 27 14 37 56 14 56 -9 0 -15 5
-13 12 1 7 -3 12 -10 13 -7 0 -18 6 -25 14 -11 12 -10 13 2 7 9 -5 9 -2 -2 7
-10 8 -15 17 -11 21 4 4 0 4 -9 1 -8 -3 -22 1 -31 9 -8 8 -17 12 -21 9 -3 -4
-6 2 -6 12 0 14 -3 15 -15 5 -12 -10 -15 -10 -15 0 0 7 -7 10 -15 6 -8 -3 -14
0 -12 6 1 6 -4 13 -12 16 -8 3 -11 0 -7 -7 11 -18 -5 -13 -20 7 -13 16 -14 15
-20 -6z"/>
<path d="M3250 600 c0 -4 9 -10 21 -13 12 -3 19 -1 17 5 -5 13 -38 20 -38 8z"/>
<path d="M3204 575 c-6 -13 -8 -14 -15 -3 -7 10 -9 11 -9 0 0 -7 -4 -11 -9 -7
-5 3 -12 1 -16 -5 -4 -6 -10 -8 -15 -5 -5 3 -11 1 -15 -5 -4 -6 -11 -7 -17 -4
-7 5 -8 2 -3 -6 6 -10 4 -12 -8 -7 -19 7 -44 -18 -27 -28 6 -4 18 -1 27 7 9 7
19 12 22 11 3 -2 7 2 7 7 1 6 2 13 3 16 0 4 9 0 18 -7 11 -10 14 -10 9 -1 -7
12 2 15 46 15 10 0 14 5 11 15 -5 12 -2 12 17 2 18 -10 21 -9 18 2 -7 20 -37
22 -44 3z m-114 -55 c0 -5 -5 -10 -11 -10 -5 0 -7 5 -4 10 3 6 8 10 11 10 2 0
4 -4 4 -10z"/>
<path d="M2994 508 c3 -15 26 -23 26 -8 0 6 -4 9 -9 6 -5 -4 -12 -1 -14 4 -3
6 -4 5 -3 -2z"/>
<path d="M3030 505 c0 -8 5 -15 10 -15 6 0 10 7 10 15 0 8 -4 15 -10 15 -5 0
-10 -7 -10 -15z"/>
<path d="M2968 501 c-1 -6 -25 -11 -53 -13 -27 -2 -56 -7 -62 -11 -7 -5 -18
-5 -25 -1 -7 4 -8 3 -4 -4 8 -13 -60 -12 -80 1 -7 4 -17 0 -24 -8 -9 -11 -17
-12 -33 -4 -17 10 -19 9 -14 -5 3 -8 1 -18 -5 -22 -7 -4 -8 -3 -4 4 4 7 -1 10
-13 7 -15 -3 -19 1 -15 13 3 9 -2 5 -11 -10 -18 -32 -31 -39 -15 -9 7 14 7 22
-2 27 -7 5 -8 3 -3 -6 6 -10 4 -12 -9 -7 -10 4 -15 3 -11 -3 3 -6 1 -11 -4
-11 -6 -1 -15 -3 -21 -4 -5 -1 -14 -3 -20 -4 -5 0 -10 -5 -10 -10 0 -6 12 -6
30 -1 18 5 32 5 35 -1 4 -5 14 -5 26 2 15 7 24 7 35 -2 11 -9 14 -9 14 1 0 7
7 10 14 7 11 -4 13 -1 9 11 -6 15 -5 15 11 3 11 -10 20 -11 24 -5 4 6 33 10
65 9 32 -1 60 2 63 7 3 5 13 3 22 -4 15 -12 16 -11 2 6 -13 17 -12 18 42 15
45 -3 54 -1 50 10 -3 9 -1 12 6 7 8 -5 10 -2 6 8 -7 18 -11 20 -16 7z m-108
-36 c-7 -8 -17 -15 -23 -15 -6 0 -2 7 9 15 25 19 30 19 14 0z m-114 -7 c4 -7
4 -10 -1 -6 -4 4 -15 2 -24 -5 -14 -11 -14 -10 -2 6 16 20 18 21 27 5z"/>
<path d="M2546 452 c-3 -5 1 -9 9 -9 8 0 15 4 15 9 0 4 -4 8 -9 8 -6 0 -12 -4
-15 -8z"/>
</g>
</svg>
