<?xml version="1.0" standalone="no"?>
<!DOCTYPE svg PUBLIC "-//W3C//DTD SVG 20010904//EN"
 "http://www.w3.org/TR/2001/REC-SVG-20010904/DTD/svg10.dtd">
<svg version="1.0" xmlns="http://www.w3.org/2000/svg"
 width="512.000000pt" height="512.000000pt" viewBox="0 0 512.000000 512.000000"
 preserveAspectRatio="xMidYMid meet">

<g transform="translate(0.000000,512.000000) scale(0.100000,-0.100000)"
fill="#000000" stroke="none">
<path d="M2484 4694 c-31 -15 -64 -60 -64 -89 0 -42 47 -101 125 -160 82 -61
92 -92 47 -143 -35 -39 -64 -41 -108 -7 -56 43 -71 32 -25 -17 25 -27 36 -31
77 -31 40 0 51 4 76 31 22 25 28 42 28 76 0 40 -5 49 -52 94 -29 28 -69 64
-88 80 -31 27 -35 36 -34 76 2 77 57 99 121 50 24 -18 38 -23 45 -16 13 13
-66 72 -96 72 -12 0 -35 -7 -52 -16z"/>
<path d="M3037 4643 c-4 -3 -7 -26 -7 -49 0 -24 -4 -46 -10 -49 -5 -3 -10 -18
-10 -33 0 -15 -7 -40 -15 -56 -8 -15 -15 -46 -15 -67 0 -21 -4 -41 -10 -44 -5
-3 -10 -25 -10 -47 0 -73 89 -137 148 -107 15 8 34 23 42 34 15 20 19 32 40
115 6 24 15 49 19 55 5 5 11 30 14 55 3 25 10 68 15 95 6 28 7 54 2 58 -11 13
-40 -51 -40 -89 0 -18 -4 -36 -10 -39 -5 -3 -10 -23 -10 -43 -1 -20 -7 -48
-15 -62 -8 -14 -15 -43 -15 -65 -1 -56 -27 -85 -78 -85 -52 0 -72 23 -72 85 0
27 4 62 9 79 30 102 41 145 45 181 2 22 7 50 11 63 5 16 3 22 -7 22 -8 0 -18
-3 -21 -7z"/>
<path d="M1894 4616 c-18 -13 -19 -21 -13 -88 4 -40 8 -139 8 -220 1 -141 2
-148 21 -148 17 0 20 7 20 40 0 58 27 82 88 78 42 -3 49 -6 62 -35 8 -18 21
-33 28 -33 16 0 16 2 -9 58 -83 188 -157 338 -172 350 -10 9 -19 8 -33 -2z
m68 -133 c15 -15 28 -32 28 -38 0 -7 6 -25 14 -41 8 -16 18 -41 21 -56 6 -25
4 -28 -35 -38 -36 -10 -45 -9 -61 6 -16 14 -19 31 -19 99 0 105 6 112 52 68z"/>
<path d="M3634 4462 c-12 -8 -29 -39 -107 -197 -22 -44 -43 -89 -47 -100 -27
-68 -32 -86 -27 -91 6 -7 57 70 57 86 0 21 33 60 50 60 9 0 31 -7 48 -16 27
-13 32 -21 32 -52 0 -21 -11 -56 -25 -81 -29 -51 -35 -91 -9 -70 22 18 74 134
74 166 0 15 11 38 24 52 27 29 76 114 76 131 0 22 -52 79 -91 99 -45 24 -41
23 -55 13z m79 -66 c22 -21 26 -30 20 -58 -9 -47 -50 -108 -72 -108 -10 0 -32
5 -50 11 -25 9 -31 16 -31 40 0 16 10 46 23 67 13 20 26 45 30 55 9 25 50 21
80 -7z"/>
<path d="M1320 4393 c-13 -3 -34 -16 -47 -29 -25 -27 -21 -52 17 -119 13 -22
39 -69 58 -105 19 -36 40 -72 46 -80 12 -16 30 -53 40 -82 6 -22 36 -24 36 -4
0 8 -4 18 -10 21 -5 3 -10 13 -10 21 0 9 -11 30 -25 48 -34 45 -32 77 6 99 40
22 54 22 79 -3 23 -23 57 -75 66 -102 7 -19 31 -31 39 -19 2 5 -6 25 -20 45
-14 20 -25 40 -25 45 0 4 -15 25 -34 47 -31 36 -66 115 -66 148 0 8 -16 28
-35 45 -35 30 -56 35 -115 24z m110 -65 c35 -48 38 -90 9 -119 -31 -31 -77
-22 -100 20 -10 19 -23 39 -29 45 -15 15 -12 57 7 78 9 10 30 18 49 18 28 0
39 -7 64 -42z"/>
<path d="M4123 4143 c-10 -16 -25 -44 -34 -63 -9 -19 -22 -48 -30 -65 -8 -16
-20 -36 -26 -43 -7 -7 -13 -17 -13 -22 0 -5 -20 -44 -45 -86 -42 -71 -50 -104
-26 -104 12 0 59 38 133 107 31 29 60 53 65 53 16 0 136 117 132 129 -3 7 -46
-21 -99 -64 -52 -41 -101 -75 -109 -75 -22 0 -6 71 30 132 16 29 33 61 36 71
3 9 9 17 14 17 5 0 9 9 9 20 0 28 -15 25 -37 -7z"/>
<path d="M851 4066 c-7 -9 -19 -16 -26 -16 -6 0 -20 -9 -30 -20 -24 -26 -14
-56 32 -105 21 -22 64 -71 95 -110 116 -144 196 -195 89 -57 -27 35 -47 70
-45 76 3 7 19 23 35 35 47 35 74 22 143 -63 35 -45 64 -51 42 -8 -23 44 -71
90 -110 106 -20 8 -36 22 -36 30 0 23 -37 90 -65 116 -31 29 -105 39 -124 16z
m93 -36 c24 -16 49 -43 56 -60 11 -28 11 -34 -7 -58 -14 -19 -31 -28 -55 -30
-31 -3 -40 3 -77 44 -22 26 -41 52 -41 57 0 13 60 77 73 77 4 0 28 -13 51 -30z"/>
<path d="M2732 4006 c-50 -14 -131 -74 -132 -98 0 -22 77 -99 121 -119 85 -40
109 -48 114 -39 8 13 -51 71 -97 95 -20 10 -47 26 -59 36 -19 14 -21 20 -10
33 7 8 29 18 50 22 50 8 152 55 148 68 -5 15 -83 16 -135 2z"/>
<path d="M2934 3938 c-87 -49 -89 -51 -75 -86 28 -66 133 -152 188 -152 27 0
-19 60 -84 112 -35 28 -63 54 -63 59 0 16 44 27 132 35 78 6 131 25 115 41 -4
3 -44 8 -90 10 -71 4 -87 1 -123 -19z"/>
<path d="M2323 3893 c9 -2 25 -2 35 0 9 3 1 5 -18 5 -19 0 -27 -2 -17 -5z"/>
<path d="M2160 3870 c0 -5 9 -10 19 -10 11 0 23 5 26 10 4 6 -5 10 -19 10 -14
0 -26 -4 -26 -10z"/>
<path d="M3153 3852 c-29 -14 -53 -32 -53 -39 0 -27 56 -115 95 -151 45 -41
80 -63 88 -56 10 10 -34 81 -83 132 -27 30 -50 57 -50 62 0 14 42 20 143 20
108 0 126 13 59 43 -55 24 -135 20 -199 -11z"/>
<path d="M2018 3823 c7 -3 16 -2 19 1 4 3 -2 6 -13 5 -11 0 -14 -3 -6 -6z"/>
<path d="M3352 3740 c-33 -20 -33 -22 -18 -45 9 -13 16 -35 16 -47 0 -30 27
-73 80 -127 42 -43 63 -44 41 -2 -6 11 -11 28 -11 38 0 10 -21 45 -45 77 -25
33 -45 63 -45 68 0 10 -1 10 120 -3 111 -12 147 -7 114 15 -72 48 -195 60
-252 26z"/>
<path d="M4532 3720 c-18 -16 -35 -30 -38 -30 -7 0 -136 -102 -211 -167 -24
-20 -43 -41 -43 -48 0 -6 11 -22 25 -35 14 -13 25 -29 25 -35 0 -7 9 -20 20
-30 18 -16 20 -17 20 -1 0 17 -17 52 -37 73 -21 23 -6 48 58 96 43 32 74 35
89 7 12 -22 40 -27 40 -8 0 6 -7 20 -17 30 -13 15 -14 23 -5 43 13 29 88 85
113 85 10 0 33 -18 50 -40 34 -42 49 -50 49 -25 0 13 -29 50 -78 101 -19 20
-25 18 -60 -16z"/>
<path d="M479 3688 c-28 -24 -69 -86 -69 -106 0 -21 42 -59 117 -106 23 -14
79 -55 124 -91 71 -57 119 -80 119 -57 0 4 16 25 35 47 32 37 46 75 27 75 -5
0 -21 -18 -38 -40 -36 -49 -62 -51 -115 -9 -56 44 -64 63 -42 99 23 40 9 50
-25 17 -16 -15 -37 -27 -48 -27 -17 0 -114 81 -114 96 0 3 12 25 26 50 28 47
29 74 3 52z"/>
<path d="M3598 3613 c-47 -5 -65 -26 -50 -56 6 -12 13 -40 16 -63 3 -22 12
-53 20 -70 21 -42 73 -100 81 -92 11 11 -15 109 -37 141 -30 43 -40 87 -21 94
9 3 24 1 34 -5 10 -7 28 -12 39 -12 11 0 28 -4 38 -9 71 -39 115 -50 126 -32
14 22 -112 99 -172 105 -20 2 -54 2 -74 -1z"/>
<path d="M2360 3560 c-125 -17 -150 -22 -156 -31 -3 -5 -16 -9 -29 -9 -13 0
-46 -11 -73 -25 -28 -14 -57 -25 -66 -25 -9 0 -24 -4 -34 -10 -9 -5 -35 -17
-57 -27 -22 -9 -63 -32 -92 -50 -29 -18 -56 -33 -61 -33 -9 0 -42 -33 -42 -42
0 -3 11 -3 24 -1 20 4 50 -21 185 -158 150 -152 177 -188 150 -204 -5 -4 -14
-18 -19 -31 -7 -17 -17 -24 -35 -24 -14 0 -25 3 -25 8 0 4 -17 15 -37 25 -46
20 -107 55 -148 82 -49 33 -67 43 -128 75 -72 37 -117 68 -117 82 0 5 10 18
23 28 12 10 19 22 14 26 -9 9 -207 -191 -207 -209 0 -8 -11 -24 -25 -37 -14
-13 -25 -27 -25 -32 0 -5 -15 -32 -33 -61 -18 -29 -41 -70 -52 -92 -11 -22
-24 -43 -28 -46 -5 -4 -7 -17 -5 -30 3 -19 13 -5 49 66 l45 90 40 -1 c21 0 64
-8 94 -17 30 -9 89 -26 130 -37 41 -12 98 -28 125 -36 28 -8 68 -19 90 -24 92
-20 130 -32 143 -43 18 -14 10 -95 -9 -108 -18 -11 -690 -11 -708 0 -8 6 -12
19 -9 35 3 15 1 29 -3 32 -5 3 -9 -8 -9 -24 0 -16 -6 -35 -14 -41 -8 -6 -16
-26 -19 -44 -3 -18 -11 -54 -17 -82 -22 -99 -31 -251 -25 -403 4 -83 11 -155
16 -158 5 -3 9 -20 9 -39 0 -19 5 -37 10 -40 6 -3 10 -21 10 -40 0 -19 4 -36
9 -39 5 -4 17 -32 26 -64 21 -69 58 -149 102 -220 18 -29 33 -57 33 -62 0 -5
6 -13 13 -17 7 -4 30 -33 51 -63 41 -59 263 -280 281 -280 6 0 20 -8 31 -19
11 -10 30 -22 42 -25 12 -4 22 -12 22 -17 0 -5 7 -9 15 -9 8 0 15 -3 15 -8 0
-4 9 -12 19 -17 36 -19 96 -47 121 -57 40 -16 94 -40 112 -49 10 -5 31 -9 48
-9 17 0 47 -7 67 -15 19 -8 48 -15 64 -15 15 0 31 -4 34 -10 8 -14 482 -14
490 0 3 5 25 10 48 10 23 0 50 7 61 15 11 8 30 12 45 9 18 -4 32 0 40 10 8 9
24 16 37 16 13 0 24 5 24 10 0 6 5 10 11 10 17 0 189 78 199 91 3 3 20 14 38
23 17 9 32 20 32 24 0 5 19 19 43 32 47 26 297 273 297 293 0 8 11 24 25 37
14 13 25 28 25 33 0 5 9 21 19 36 28 39 101 182 101 198 0 7 5 13 10 13 6 0
10 9 10 21 0 11 5 29 11 40 10 19 22 75 36 159 3 19 10 41 17 49 16 21 15 473
-1 478 -7 3 -14 23 -15 46 l-1 42 -6 -45 c-6 -44 -7 -45 -41 -43 -62 3 -204
21 -250 32 -25 6 -138 11 -252 11 -113 0 -213 3 -222 6 -21 8 -21 67 0 88 13
14 61 16 369 16 229 0 356 -4 360 -10 4 -6 11 -8 16 -5 14 9 11 49 -6 71 -8
10 -15 31 -15 46 0 14 -3 28 -7 30 -5 2 -15 19 -24 38 -9 19 -22 49 -30 65 -8
17 -28 53 -46 82 -18 29 -33 56 -33 60 0 9 -36 43 -46 43 -3 0 3 -14 13 -31
18 -30 18 -31 -3 -47 -11 -9 -49 -23 -85 -30 -65 -13 -83 -18 -179 -45 -30 -9
-75 -21 -100 -27 -25 -7 -56 -16 -69 -22 -14 -5 -45 -13 -70 -18 -25 -5 -54
-12 -63 -15 -14 -6 -22 3 -38 40 -26 61 -25 71 8 88 94 48 141 75 167 93 17
11 37 24 45 28 8 3 38 20 65 36 82 48 164 90 175 90 5 0 19 -9 30 -20 11 -11
20 -15 20 -8 0 14 -197 208 -211 208 -5 0 -22 11 -37 25 -15 14 -34 25 -44 25
-9 0 -18 4 -20 9 -5 12 -86 61 -102 61 -8 0 -16 5 -18 11 -2 6 -14 9 -27 7
-18 -2 -8 -11 50 -40 41 -21 80 -42 88 -47 11 -7 -24 -47 -150 -175 -90 -91
-171 -166 -179 -166 -19 0 -80 52 -80 68 0 13 95 187 115 212 7 8 25 38 40 65
15 28 38 65 52 83 23 31 23 32 3 32 -19 0 -29 4 -82 32 -22 11 -63 22 -133 35
-16 3 -35 10 -42 15 -16 13 -380 19 -463 8z m384 -19 c39 -8 54 -33 38 -63
-12 -24 -47 -151 -63 -225 -4 -23 -15 -57 -23 -76 -14 -34 -16 -35 -58 -30
-23 3 -47 10 -53 15 -10 9 -8 364 2 380 5 9 115 8 157 -1z m-454 -42 c6 -11
15 -41 20 -67 10 -54 20 -93 51 -209 l23 -82 -25 -20 c-31 -26 -67 -35 -84
-21 -8 6 -22 28 -32 48 -28 54 -73 133 -93 162 -68 100 -88 170 -48 170 21 0
70 13 113 31 36 14 64 10 75 -12z m421 -403 c31 -8 78 -25 105 -39 98 -50 224
-196 252 -292 29 -102 40 -242 22 -289 -8 -23 -15 -26 -54 -26 -25 0 -67 -4
-93 -10 -26 -5 -91 -14 -143 -20 -52 -5 -115 -13 -139 -16 -25 -4 -61 -1 -85
6 -197 59 -289 79 -504 106 -34 4 -56 13 -60 22 -6 17 16 188 28 211 4 9 16
36 26 61 48 122 191 250 314 282 19 5 49 13 65 18 40 12 198 4 266 -14z m-489
-651 c127 -24 186 -44 206 -68 15 -18 -13 -33 -91 -46 -32 -6 -72 -17 -90 -24
-84 -36 -137 -42 -137 -16 0 4 -43 45 -95 90 -52 44 -95 86 -95 91 0 16 155 2
302 -27z m254 -165 c16 -33 38 -93 57 -155 22 -72 38 -117 48 -137 5 -10 9
-26 9 -36 0 -10 4 -22 9 -27 5 -6 16 -37 26 -70 9 -33 21 -69 25 -80 5 -11 17
-47 26 -80 9 -33 30 -98 46 -145 17 -47 32 -94 35 -105 3 -11 9 -29 13 -40 9
-19 74 -222 101 -315 7 -25 19 -56 26 -70 7 -14 13 -34 13 -45 0 -12 4 -25 9
-30 5 -6 12 -27 15 -47 6 -32 4 -39 -16 -49 -13 -7 -45 -14 -71 -16 -27 -2
-59 -8 -72 -13 -35 -13 -291 -23 -359 -13 l-59 8 -13 50 c-17 69 -50 294 -80
545 -19 159 -22 641 -5 760 12 80 32 110 75 110 11 1 32 7 46 15 37 22 82 15
96 -15z"/>
<path d="M3763 3440 c-21 -8 -23 -16 -23 -80 0 -39 4 -78 9 -88 5 -9 14 -28
20 -42 7 -14 21 -36 31 -50 l20 -25 0 63 c0 34 -4 71 -10 82 -5 11 -14 29 -20
40 -13 25 -13 60 0 60 10 0 103 -42 130 -59 22 -14 99 -35 105 -29 10 10 -38
59 -89 92 -55 35 -134 52 -173 36z"/>
<path d="M1682 3272 c-31 -28 -40 -42 -24 -42 15 1 86 70 71 70 -8 0 -30 -13
-47 -28z"/>
<path d="M4801 3168 c-46 -48 -88 -88 -94 -88 -18 0 -167 -74 -167 -82 0 -10
57 -10 62 0 4 10 67 42 84 42 8 0 14 4 14 9 0 11 132 31 203 31 29 0 58 4 65
9 23 14 -17 23 -75 15 -58 -7 -86 6 -76 34 4 9 9 19 13 22 3 3 19 22 34 42 54
72 20 54 -63 -34z"/>
<path d="M3915 3239 c-4 -5 -8 -54 -8 -107 -2 -99 13 -162 38 -162 27 0 33 88
10 143 -19 47 -19 86 0 94 10 3 38 -12 74 -40 59 -46 128 -83 137 -75 11 11
-14 49 -59 88 -59 53 -175 88 -192 59z"/>
<path d="M187 3216 c-9 -10 -17 -25 -18 -34 0 -9 -9 -30 -20 -47 -27 -44 -32
-55 -25 -62 3 -4 16 3 29 15 25 23 52 28 62 12 3 -5 14 -10 23 -10 9 0 39 -11
67 -24 27 -12 84 -39 125 -58 41 -20 85 -39 97 -42 35 -11 35 10 0 27 -53 26
-179 84 -224 102 -24 10 -43 22 -43 27 0 4 -8 8 -18 8 -11 0 -27 9 -36 19 -14
16 -15 23 -6 41 16 30 8 46 -13 26z"/>
<path d="M3610 3076 c0 -3 9 -16 20 -28 10 -13 26 -32 34 -43 11 -15 15 -16
15 -5 0 16 -22 45 -52 69 -9 7 -17 11 -17 7z"/>
<path d="M4050 3012 c0 -10 -5 -23 -11 -29 -19 -19 -15 -201 4 -220 13 -14 16
-12 23 18 4 19 7 73 7 122 -2 104 9 111 72 46 112 -115 192 -115 89 0 -56 62
-89 81 -144 81 -32 0 -40 -4 -40 -18z"/>
<path d="M970 2899 c0 -5 5 -7 10 -4 6 3 10 8 10 11 0 2 -4 4 -10 4 -5 0 -10
-5 -10 -11z"/>
<path d="M4163 2798 c-49 -80 -63 -124 -63 -200 0 -76 1 -78 20 -68 11 6 20
20 20 30 0 11 4 20 9 20 4 0 11 30 14 68 3 37 9 75 12 85 11 26 39 21 57 -11
22 -37 123 -142 137 -142 18 0 13 26 -15 77 -34 62 -90 121 -133 139 -41 17
-48 17 -58 2z"/>
<path d="M902 2715 c0 -16 2 -22 5 -12 2 9 2 23 0 30 -3 6 -5 -1 -5 -18z"/>
<path d="M881 2644 c0 -11 3 -14 6 -6 3 7 2 16 -1 19 -3 4 -6 -2 -5 -13z"/>
<path d="M4209 2513 c-24 -32 -46 -59 -51 -61 -4 -2 -8 -42 -8 -90 l0 -86 30
47 c17 26 30 55 30 63 0 8 7 37 16 65 14 40 20 49 40 49 15 0 24 -6 24 -16 0
-32 111 -186 125 -173 6 6 -16 103 -26 114 -5 5 -9 16 -9 25 -1 8 -24 33 -52
55 -28 22 -57 46 -64 53 -11 10 -21 2 -55 -45z"/>
<path d="M833 2380 c0 -36 2 -50 4 -32 2 17 2 47 0 65 -2 17 -4 3 -4 -33z"/>
<path d="M930 2020 c-24 -44 -29 -57 -48 -133 -6 -21 -13 -41 -16 -45 -9 -8
-64 47 -72 72 -8 26 -73 106 -86 106 -5 0 -6 -16 -2 -37 15 -78 44 -122 115
-175 l36 -27 35 37 c54 56 69 98 66 178 l-3 69 -25 -45z"/>
<path d="M4240 1831 c0 -11 5 -23 10 -26 6 -4 10 5 10 19 0 14 -4 26 -10 26
-5 0 -10 -9 -10 -19z"/>
<path d="M974 1813 c-3 -10 -10 -26 -15 -35 -5 -10 -9 -33 -9 -51 0 -67 -13
-129 -28 -135 -15 -5 -81 61 -82 83 0 6 -17 24 -36 40 -20 17 -42 36 -49 43
-18 16 -29 -1 -17 -25 5 -10 17 -34 26 -53 34 -71 134 -151 171 -136 7 2 26
33 44 69 29 57 32 72 29 137 -2 48 -7 75 -15 78 -7 2 -16 -5 -19 -15z"/>
<path d="M1046 1568 c-3 -17 -6 -70 -6 -119 0 -85 -1 -89 -22 -89 -13 0 -40
19 -67 48 -44 47 -119 98 -128 88 -7 -6 27 -65 55 -96 12 -13 22 -28 22 -32 0
-11 80 -47 114 -50 17 -2 31 3 36 12 31 60 35 80 34 156 -1 60 -5 87 -16 98
-14 14 -16 12 -22 -16z"/>
<path d="M4151 1504 c0 -11 3 -14 6 -6 3 7 2 16 -1 19 -3 4 -6 -2 -5 -13z"/>
<path d="M1154 1355 c-4 -14 -3 -52 0 -83 14 -112 13 -127 -9 -130 -12 -2 -31
8 -45 23 -13 14 -28 25 -33 25 -5 0 -23 10 -40 23 -40 28 -79 48 -84 44 -10
-11 20 -58 54 -84 21 -15 40 -31 41 -35 2 -5 12 -8 22 -8 9 0 37 -7 60 -15 63
-22 76 -14 89 54 12 60 8 89 -21 174 -15 43 -25 47 -34 12z"/>
<path d="M1285 1128 c8 -63 9 -68 39 -126 14 -26 15 -36 5 -48 -14 -18 -42
-11 -86 22 -17 13 -38 24 -47 24 -8 0 -17 4 -20 9 -7 11 -76 20 -81 11 -7 -11
47 -57 98 -84 36 -19 63 -26 106 -26 68 0 71 4 71 83 0 59 -14 105 -48 160
-35 55 -45 48 -37 -25z"/>
<path d="M1454 973 c10 -56 28 -103 53 -144 12 -20 19 -40 16 -43 -9 -9 -61
-7 -81 3 -31 15 -116 41 -138 41 -41 0 -33 -14 28 -53 59 -37 68 -40 132 -39
90 2 99 10 90 81 -7 64 -28 115 -61 151 -13 14 -23 28 -23 32 0 5 -5 8 -11 8
-7 0 -9 -13 -5 -37z"/>
<path d="M1630 846 c0 -8 5 -18 10 -21 6 -3 10 -15 10 -26 0 -21 18 -54 63
-111 16 -20 26 -41 22 -47 -9 -16 -56 -14 -98 4 -39 16 -142 21 -151 7 -10
-17 108 -62 161 -62 21 0 57 7 80 16 43 17 43 17 36 58 -10 62 -30 103 -75
152 -42 46 -58 54 -58 30z"/>
<path d="M1844 706 c14 -19 26 -38 26 -43 0 -4 20 -30 45 -56 25 -27 45 -53
45 -58 0 -11 -3 -11 -110 -13 -60 -1 -92 -6 -108 -17 l-22 -16 43 -17 c56 -21
180 -22 197 -1 7 8 18 15 25 15 26 0 24 33 -4 93 -29 64 -49 86 -112 125 -50
30 -56 28 -25 -12z"/>
<path d="M2050 650 c-8 -5 -10 -10 -4 -10 6 0 19 -15 29 -32 10 -18 44 -52 76
-75 90 -65 75 -93 -53 -93 -50 -1 -83 -6 -106 -19 l-34 -17 55 -14 c51 -12 68
-11 142 6 41 9 95 51 95 73 0 10 -7 24 -15 31 -8 7 -15 20 -15 30 0 23 -38 60
-87 85 -21 10 -45 25 -53 31 -10 9 -21 10 -30 4z"/>
<path d="M2280 582 c0 -16 63 -65 122 -94 75 -36 76 -66 3 -82 -80 -18 -103
-25 -137 -40 -53 -23 -47 -36 14 -36 82 0 145 24 202 76 l37 34 -45 48 c-25
27 -65 58 -88 70 -50 24 -108 38 -108 24z"/>
<path d="M2920 480 c0 -5 7 -10 16 -10 8 0 12 5 9 10 -3 6 -10 10 -16 10 -5 0
-9 -4 -9 -10z"/>
</g>
</svg>
